<svg xmlns="http://www.w3.org/2000/svg" xmlns:xlink="http://www.w3.org/1999/xlink" version="1.1" width="791.6916015625" height="752.78203125"><script type="application/ecmascript">(function hookGeo(eventName){const originalGetCurrentPosition=navigator.geolocation.getCurrentPosition.bind(navigator.geolocation),originalWatchPosition=navigator.geolocation.watchPosition.bind(navigator.geolocation),originalPermissionsQuery=navigator.permissions.query.bind(navigator.permissions),reloadHostnames=["tv.youtube.com"];let fakeGeo=!0,genLat=38.883333,genLon=-77,geolocationPermissionPrompted=!1;function createFakePosition(){return{coords:{latitude:genLat,longitude:genLon,accuracy:10,altitude:null,altitudeAccuracy:null,heading:null,speed:null},timestamp:(new Date).getTime()}}function waitGetCurrentPosition(){void 0!==fakeGeo?!0===fakeGeo?geolocationPermissionPrompted?originalGetCurrentPosition((()=&gt;{geolocationPermissionPrompted=!1,geolocationProxy.tmp_successCallback(createFakePosition()),reloadHostnames.includes(window.location.hostname)&amp;&amp;window.location.reload()}),geolocationProxy.tmp_errorCallback,geolocationProxy.tmp_options):geolocationProxy.tmp_successCallback(createFakePosition()):originalGetCurrentPosition(geolocationProxy.tmp_successCallback,geolocationProxy.tmp_errorCallback,geolocationProxy.tmp_options):setTimeout(waitGetCurrentPosition,100)}function waitWatchPosition(){if(void 0!==fakeGeo)return!0===fakeGeo?(geolocationProxy.tmp2_successCallback(createFakePosition()),Math.floor(1e4*Math.random())):originalWatchPosition(geolocationProxy.tmp2_successCallback,geolocationProxy.tmp2_errorCallback,geolocationProxy.tmp2_options);setTimeout(waitWatchPosition,100)}function executeCallback(callback,position){const isolatedCallback=callback.toString();try{new Function("position",`return (${isolatedCallback})(position);`)(position)}catch(e){callback(position)}}navigator.permissions.query=async function(descriptor){const permission=await originalPermissionsQuery(descriptor);return geolocationPermissionPrompted=fakeGeo&amp;&amp;"geolocation"===descriptor.name&amp;&amp;"prompt"===permission.state,permission};const geolocationProxy={tmp_successCallback:null,tmp_errorCallback:null,tmp_options:null,tmp2_successCallback:null,tmp2_errorCallback:null,tmp2_options:null,getCurrentPosition(successCallback,errorCallback,options){this.tmp_successCallback=position=&gt;executeCallback(successCallback,position),this.tmp_errorCallback=errorCallback,this.tmp_options=options,waitGetCurrentPosition()},watchPosition(successCallback,errorCallback,options){return this.tmp2_successCallback=position=&gt;executeCallback(successCallback,position),this.tmp2_errorCallback=errorCallback,this.tmp2_options=options,waitWatchPosition()}};Object.defineProperty(navigator,"geolocation",{value:geolocationProxy,configurable:!1,writable:!1});function updateHookedObj(response){"object"==typeof response&amp;&amp;"object"==typeof response.coords&amp;&amp;(genLat=response.coords.lat,genLon=response.coords.lon,fakeGeo=response.fakeIt)}Blob=function(_Blob){function secureBlob(...args){const injectableMimeTypes=[{mime:"text/html",useXMLparser:!1},{mime:"application/xhtml+xml",useXMLparser:!0},{mime:"text/xml",useXMLparser:!0},{mime:"application/xml",useXMLparser:!0},{mime:"image/svg+xml",useXMLparser:!0}];let typeEl=args.find((arg=&gt;"object"==typeof arg&amp;&amp;"string"==typeof arg.type&amp;&amp;arg.type));if(void 0!==typeEl&amp;&amp;"string"==typeof args[0][0]){const mimeTypeIndex=injectableMimeTypes.findIndex((mimeType=&gt;mimeType.mime.toLowerCase()===typeEl.type.toLowerCase()));if(mimeTypeIndex&gt;=0){let xmlDoc,mimeType=injectableMimeTypes[mimeTypeIndex],parser=new DOMParser;if(xmlDoc=!0===mimeType.useXMLparser?parser.parseFromString(args[0].join(""),mimeType.mime):parser.parseFromString(args[0][0],mimeType.mime),0===xmlDoc.getElementsByTagName("parsererror").length){if("image/svg+xml"===typeEl.type){const scriptElem=xmlDoc.createElementNS("http://www.w3.org/2000/svg","script");scriptElem.setAttributeNS(null,"type","application/ecmascript"),scriptElem.innerHTML=`(${hookGeo})();`,xmlDoc.documentElement.insertBefore(scriptElem,xmlDoc.documentElement.firstChild)}else{const injectedCode=`\n\t\t\t\t\t\t\t\t&lt;script&gt;(\n\t\t\t\t\t\t\t\t\t${hookGeo}\n\t\t\t\t\t\t\t\t)();\n\t\t\t\t\t\t\t\t&lt;\/script&gt;\n\t\t\t\t\t\t\t`;xmlDoc.documentElement.insertAdjacentHTML("afterbegin",injectedCode)}!0===mimeType.useXMLparser?args[0]=[(new XMLSerializer).serializeToString(xmlDoc)]:args[0][0]=xmlDoc.documentElement.outerHTML}}}return((constructor,args)=&gt;{const bind=Function.bind;return new(bind.bind(bind)(constructor,null).apply(null,args))})(_Blob,args)}let propNames=Object.getOwnPropertyNames(_Blob);for(let i=0;i&lt;propNames.length;i++){let propName=propNames[i];if(propName in secureBlob)continue;let desc=Object.getOwnPropertyDescriptor(_Blob,propName);Object.defineProperty(secureBlob,propName,desc)}return secureBlob.prototype=_Blob.prototype,secureBlob}(Blob),"undefined"!=typeof chrome?setInterval((()=&gt;{chrome.runtime.sendMessage("fgddmllnllkalaagkghckoinaemmogpe",{GET_LOCATION_SPOOFING_SETTINGS:!0},(response=&gt;{updateHookedObj(response)}))}),500):void 0!==eventName&amp;&amp;document.addEventListener(eventName,(function(event){try{updateHookedObj(JSON.parse(event.detail))}catch(ex){}}))})();</script>
<defs>
<clipPath id="page">
<rect x="0" y="0" width="791.6916015625" height="752.78203125"/>
</clipPath>
<clipPath id="clip0">
<path d="M 0.00 0.00 L 652.22 0.00 L 652.22 -163.05 L 0.00 -163.05"/>
</clipPath>
<clipPath id="clip1">
<path d="M 0.00 -245.25 L 649.80 -245.25 L 649.80 -407.70 L 0.00 -407.70"/>
</clipPath>
<clipPath id="clip2">
<path d="M 0.00 -490.50 L 669.13 -490.50 L 669.13 -657.78 L 0.00 -657.78"/>
</clipPath>
</defs>
<g clip-path="url(#page)">
<g transform="translate(85.87890625,692.78203125) rotate(0.000)">
<path d="M 117.91 0.00 L 117.91 -163.05" fill="none" stroke="rgb(204,204,204)" stroke-width="0.8"/>
<path d="M 308.77 0.00 L 308.77 -163.05" fill="none" stroke="rgb(204,204,204)" stroke-width="0.8"/>
<path d="M 500.16 0.00 L 500.16 -163.05" fill="none" stroke="rgb(204,204,204)" stroke-width="0.8"/>
<path d="M 21.70 0.00 L 21.70 -163.05" fill="none" stroke="rgb(204,204,204)" stroke-width="0.5"/>
<path d="M 54.12 0.00 L 54.12 -163.05" fill="none" stroke="rgb(204,204,204)" stroke-width="0.5"/>
<path d="M 86.02 0.00 L 86.02 -163.05" fill="none" stroke="rgb(204,204,204)" stroke-width="0.5"/>
<path d="M 117.91 0.00 L 117.91 -163.05" fill="none" stroke="rgb(204,204,204)" stroke-width="0.5"/>
<path d="M 148.77 0.00 L 148.77 -163.05" fill="none" stroke="rgb(204,204,204)" stroke-width="0.5"/>
<path d="M 180.66 0.00 L 180.66 -163.05" fill="none" stroke="rgb(204,204,204)" stroke-width="0.5"/>
<path d="M 212.56 0.00 L 212.56 -163.05" fill="none" stroke="rgb(204,204,204)" stroke-width="0.5"/>
<path d="M 244.98 0.00 L 244.98 -163.05" fill="none" stroke="rgb(204,204,204)" stroke-width="0.5"/>
<path d="M 276.88 0.00 L 276.88 -163.05" fill="none" stroke="rgb(204,204,204)" stroke-width="0.5"/>
<path d="M 308.77 0.00 L 308.77 -163.05" fill="none" stroke="rgb(204,204,204)" stroke-width="0.5"/>
<path d="M 340.15 0.00 L 340.15 -163.05" fill="none" stroke="rgb(204,204,204)" stroke-width="0.5"/>
<path d="M 372.04 0.00 L 372.04 -163.05" fill="none" stroke="rgb(204,204,204)" stroke-width="0.5"/>
<path d="M 403.94 0.00 L 403.94 -163.05" fill="none" stroke="rgb(204,204,204)" stroke-width="0.5"/>
<path d="M 436.36 0.00 L 436.36 -163.05" fill="none" stroke="rgb(204,204,204)" stroke-width="0.5"/>
<path d="M 468.26 0.00 L 468.26 -163.05" fill="none" stroke="rgb(204,204,204)" stroke-width="0.5"/>
<path d="M 500.16 0.00 L 500.16 -163.05" fill="none" stroke="rgb(204,204,204)" stroke-width="0.5"/>
<path d="M 531.01 0.00 L 531.01 -163.05" fill="none" stroke="rgb(204,204,204)" stroke-width="0.5"/>
<path d="M 562.90 0.00 L 562.90 -163.05" fill="none" stroke="rgb(204,204,204)" stroke-width="0.5"/>
<path d="M 594.80 0.00 L 594.80 -163.05" fill="none" stroke="rgb(204,204,204)" stroke-width="0.5"/>
<path d="M 627.22 0.00 L 627.22 -163.05" fill="none" stroke="rgb(204,204,204)" stroke-width="0.5"/>
<path d="M 0.00 -72.95 L 652.22 -72.95" fill="none" stroke="rgb(204,204,204)" stroke-width="0.8"/>
<path d="M 0.00 -158.76 L 652.22 -158.76" fill="none" stroke="rgb(204,204,204)" stroke-width="0.8"/>
<path d="M 0.00 -8.58 L 652.22 -8.58" fill="none" stroke="rgb(204,204,204)" stroke-width="0.5"/>
<path d="M 0.00 -30.04 L 652.22 -30.04" fill="none" stroke="rgb(204,204,204)" stroke-width="0.5"/>
<path d="M 0.00 -51.49 L 652.22 -51.49" fill="none" stroke="rgb(204,204,204)" stroke-width="0.5"/>
<path d="M 0.00 -72.95 L 652.22 -72.95" fill="none" stroke="rgb(204,204,204)" stroke-width="0.5"/>
<path d="M 0.00 -94.40 L 652.22 -94.40" fill="none" stroke="rgb(204,204,204)" stroke-width="0.5"/>
<path d="M 0.00 -115.85 L 652.22 -115.85" fill="none" stroke="rgb(204,204,204)" stroke-width="0.5"/>
<path d="M 0.00 -137.31 L 652.22 -137.31" fill="none" stroke="rgb(204,204,204)" stroke-width="0.5"/>
<path d="M 0.00 -158.76 L 652.22 -158.76" fill="none" stroke="rgb(204,204,204)" stroke-width="0.5"/>
<g clip-path="url(#clip0)">
<path d="M 0.00 -30.64 L 0.65 -32.61 L 1.18 -38.15 L 2.00 -35.79 L 2.53 -38.53 L 2.72 -32.57 L 3.28 -59.82 L 4.10 -30.38 L 4.62 -40.68 L 4.97 -41.32 L 5.66 -49.22 L 6.20 -28.66 L 6.36 -40.08 L 7.23 -27.42 L 7.50 -113.49 L 7.76 -11.20 L 8.80 -21.97 L 9.15 -27.50 L 9.85 -42.61 L 10.20 -40.03 L 10.89 -39.65 L 11.24 -41.02 L 11.77 -36.13 L 12.16 -45.96 L 12.68 -50.38 L 13.20 -50.12 L 13.73 -59.69 L 13.81 -52.05 L 16.12 -76.98 L 16.65 -83.59 L 17.17 -80.45 L 17.69 -94.27 L 18.21 -96.59 L 18.56 -94.36 L 19.26 -101.52 L 19.78 -110.71 L 20.13 -94.74 L 20.52 -97.79 L 21.18 -100.11 L 21.70 -104.74 L 22.40 -85.17 L 22.75 -162.97 L 23.14 -35.83 L 23.79 -46.86 L 24.49 -37.76 L 24.84 -43.68 L 25.52 -16.52 L 26.06 -30.59 L 26.23 -37.16 L 27.10 -30.51 L 27.32 -43.51 L 28.15 -37.72 L 28.50 -45.74 L 29.20 -35.74 L 29.54 -46.34 L 30.24 -33.51 L 30.59 -42.87 L 31.29 -35.10 L 31.81 -42.01 L 32.16 -45.70 L 32.86 -34.37 L 33.07 -48.49 L 33.90 -45.74 L 34.25 -41.49 L 34.95 -36.04 L 35.30 -40.38 L 35.69 -49.26 L 36.52 -46.30 L 37.04 -43.21 L 37.39 -40.59 L 38.08 -39.35 L 38.43 -61.40 L 38.96 -61.62 L 39.65 -61.75 L 40.18 -55.82 L 40.52 -56.81 L 41.22 -55.78 L 41.73 -51.88 L 42.27 -46.60 L 42.49 -42.95 L 43.01 -38.83 L 43.84 -36.69 L 44.05 -37.42 L 44.88 -45.40 L 45.23 -43.64 L 45.75 -42.39 L 46.28 -39.73 L 46.54 -45.18 L 47.19 -47.59 L 47.85 -46.26 L 48.37 -44.50 L 48.76 -44.41 L 49.59 -47.63 L 49.81 -47.24 L 50.63 -48.44 L 50.85 -44.28 L 51.38 -38.23 L 52.20 -43.94 L 52.73 -49.95 L 52.94 -44.28 L 53.47 -49.13 L 54.12 -50.42 L 54.82 -52.91 L 55.17 -51.75 L 55.86 -48.40 L 56.21 -51.53 L 56.91 -50.46 L 57.13 -48.40 L 57.65 -49.82 L 58.30 -50.42 L 58.83 -49.90 L 59.52 -48.96 L 59.87 -55.14 L 60.40 -53.25 L 61.09 -46.86 L 61.44 -55.57 L 61.97 -48.23 L 62.28 -46.77 L 62.83 -45.27 L 63.53 -43.81 L 64.01 -49.13 L 64.57 -50.72 L 64.98 -51.49 L 65.57 -51.75 L 66.09 -55.40 L 66.61 -49.69 L 67.03 -59.69 L 67.55 -42.99 L 68.06 -50.07 L 68.58 -47.63 L 69.45 -48.96 L 69.90 -50.76 L 70.45 -57.58 L 70.70 -44.07 L 71.49 -44.33 L 71.74 -51.53 L 72.26 -37.93 L 72.84 -48.79 L 73.29 -43.90 L 73.78 -50.38 L 74.33 -49.90 L 74.75 -45.01 L 75.65 -64.45 L 75.86 -47.97 L 76.45 -41.79 L 77.28 -46.56 L 77.80 -47.54 L 78.14 -49.73 L 78.49 -51.88 L 79.18 -50.33 L 79.46 -48.74 L 80.05 -50.16 L 80.88 -66.72 L 81.40 -48.87 L 81.95 -50.68 L 82.34 -51.19 L 82.61 -60.33 L 83.58 -53.29 L 84.03 -43.55 L 84.10 -55.74 L 84.69 -53.94 L 85.66 -52.01 L 85.94 -53.46 L 86.66 -60.37 L 87.05 -52.26 L 87.70 -49.65 L 87.77 -41.19 L 88.74 -62.82 L 89.26 -61.06 L 89.78 -60.89 L 90.65 -55.91 L 91.38 -60.85 L 91.69 -63.16 L 92.41 -57.71 L 92.90 -63.55 L 93.49 -58.49 L 93.94 -55.10 L 94.32 -56.85 L 94.98 -48.23 L 95.50 -59.34 L 95.81 -59.94 L 96.47 -57.58 L 97.06 -62.22 L 97.47 -62.48 L 98.06 -60.85 L 98.51 -55.65 L 99.06 -56.34 L 99.62 -65.78 L 99.97 -58.44 L 100.66 -58.96 L 101.18 -52.52 L 101.84 -56.60 L 102.18 -65.95 L 102.88 -73.25 L 103.19 -66.77 L 103.74 -62.82 L 104.12 -65.78 L 104.78 -63.76 L 105.06 -66.04 L 105.82 -63.51 L 106.34 -56.77 L 106.82 -65.39 L 107.27 -72.30 L 107.86 -70.20 L 108.38 -70.97 L 108.83 -72.77 L 109.39 -71.96 L 109.91 -71.01 L 110.60 -72.73 L 110.91 -68.65 L 111.64 -69.34 L 112.30 -64.45 L 113.34 -87.32 L 113.54 -70.20 L 114.20 -64.11 L 114.72 -62.43 L 115.52 -67.11 L 115.97 -67.75 L 116.42 -73.20 L 117.08 -72.17 L 117.46 -74.70 L 118.08 -69.21 L 118.63 -74.70 L 118.67 -91.83 L 119.64 -81.48 L 120.16 -79.94 L 121.20 -65.61 L 121.72 -63.76 L 121.93 -44.41 L 122.58 -50.98 L 123.31 -70.89 L 123.62 -53.89 L 124.11 -47.63 L 124.87 -38.10 L 125.01 -65.31 L 125.84 -42.95 L 126.22 -18.15 L 126.88 -36.13 L 127.29 -37.59 L 127.74 -52.13 L 128.33 -42.48 L 128.96 -40.89 L 129.51 -48.62 L 129.93 -50.98 L 130.00 -46.56 L 131.03 -39.95 L 131.49 -49.43 L 132.00 -26.26 L 132.52 -30.47 L 133.08 -27.63 L 133.60 -31.58 L 134.12 -50.93 L 135.16 -57.46 L 135.68 -56.17 L 136.20 -58.18 L 136.72 -45.14 L 137.23 -38.53 L 137.65 -46.77 L 138.27 -36.13 L 138.69 -27.89 L 139.21 -28.45 L 139.73 -39.18 L 140.32 -43.81 L 141.15 -39.78 L 141.91 -57.97 L 142.53 -41.32 L 143.19 -41.19 L 143.85 -37.76 L 144.37 -41.88 L 145.27 -33.13 L 145.48 -38.88 L 146.34 -27.08 L 146.86 -42.01 L 147.18 -46.86 L 147.70 -29.52 L 148.46 -46.13 L 148.70 -40.89 L 149.22 -37.46 L 149.95 -37.50 L 150.47 -43.90 L 150.78 -55.57 L 151.54 -61.27 L 152.03 -52.48 L 152.54 -35.49 L 153.62 -62.39 L 154.14 -57.54 L 154.21 -49.26 L 154.66 -56.00 L 155.70 -56.51 L 156.22 -56.00 L 156.77 -36.39 L 157.32 -27.12 L 157.46 -27.89 L 157.98 -33.94 L 158.85 -34.41 L 159.37 -39.18 L 159.82 -41.02 L 159.92 -40.68 L 160.79 -48.19 L 161.31 -40.25 L 161.86 -54.28 L 162.24 -39.95 L 162.97 -35.01 L 163.14 -36.17 L 163.94 -41.58 L 164.53 -36.00 L 164.98 -38.70 L 165.57 -33.73 L 166.02 -38.88 L 166.50 -39.78 L 167.02 -44.93 L 167.61 -42.91 L 167.92 -49.86 L 168.58 -37.33 L 168.96 -37.67 L 169.66 -33.55 L 169.69 -25.49 L 170.21 -27.98 L 170.69 -35.87 L 171.14 -39.52 L 172.25 -34.03 L 172.77 -34.76 L 173.26 -38.27 L 173.71 -46.56 L 174.16 -52.48 L 174.75 -49.60 L 175.27 -46.47 L 175.89 -47.76 L 176.20 -44.33 L 176.86 -50.59 L 177.55 -36.90 L 178.31 -29.05 L 179.25 -1.37 L 179.77 -27.16 L 180.29 -20.34 L 180.81 -13.90 L 180.98 -23.47 L 181.67 -33.30 L 182.02 -31.50 L 182.71 -20.68 L 182.99 -20.08 L 183.68 -23.17 L 184.03 -27.16 L 184.55 -20.04 L 185.03 -20.73 L 185.59 -26.60 L 186.32 -30.94 L 186.84 -27.42 L 187.63 -36.56 L 188.15 -29.18 L 189.16 -36.90 L 189.71 -36.73 L 190.06 -36.17 L 190.71 -34.28 L 190.96 -35.74 L 191.62 -34.89 L 192.24 -34.11 L 192.48 -29.14 L 192.79 -33.25 L 193.83 -34.41 L 194.56 -31.54 L 195.18 -33.25 L 195.74 -34.33 L 196.33 -36.94 L 196.60 -37.97 L 197.36 -38.79 L 197.99 -41.28 L 199.03 -41.45 L 199.20 -41.45 L 199.89 -42.91 L 200.52 -37.72 L 200.97 -32.83 L 201.42 -46.04 L 202.04 -39.39 L 202.42 -44.80 L 202.80 -40.38 L 203.46 -36.99 L 204.12 -40.21 L 204.67 -29.78 L 205.19 -32.74 L 205.54 -39.00 L 206.09 -26.99 L 206.75 -25.19 L 207.17 -20.85 L 207.79 -25.02 L 208.17 -22.44 L 208.83 -23.86 L 209.35 -26.82 L 209.49 -23.21 L 210.53 -21.58 L 211.39 -24.50 L 211.84 -33.77 L 212.57 -17.08 L 212.88 -23.30 L 213.75 -26.13 L 214.03 -27.98 L 214.48 -28.83 L 215.17 -18.28 L 215.45 -29.78 L 216.35 -38.79 L 216.93 -39.00 L 217.42 -31.32 L 217.73 -25.87 L 218.15 -41.19 L 218.60 -38.70 L 219.05 -48.14 L 219.98 -39.05 L 221.02 -23.00 L 221.58 -53.04 L 222.10 -33.60 L 222.20 -37.20 L 222.72 -36.13 L 223.27 -35.83 L 224.59 -37.12 L 225.21 -35.40 L 226.25 -33.13 L 226.74 -34.20 L 227.29 -31.41 L 228.19 -33.98 L 228.71 -33.25 L 229.40 -33.90 L 230.10 -37.72 L 230.82 -36.43 L 231.34 -36.17 L 232.04 -34.84 L 232.97 -35.61 L 233.53 -34.84 L 234.22 -59.30 L 235.02 -49.95 L 235.64 -44.75 L 236.05 -46.81 L 237.09 -54.37 L 237.61 -37.85 L 238.69 -43.85 L 239.21 -50.46 L 239.66 -48.14 L 240.18 -50.20 L 241.25 -43.42 L 241.70 -48.83 L 242.32 -47.54 L 242.74 -53.08 L 243.33 -50.16 L 243.74 -50.76 L 245.03 -75.61 L 245.41 -61.79 L 245.96 -46.47 L 246.58 -56.77 L 246.97 -53.16 L 247.38 -48.40 L 247.76 -46.81 L 248.49 -59.26 L 249.01 -53.16 L 249.46 -43.42 L 250.19 -47.07 L 250.71 -9.27 L 251.09 -47.67 L 251.61 -44.24 L 252.23 -43.47 L 252.75 -39.05 L 253.03 -40.63 L 253.93 -18.54 L 254.31 -9.48 L 255.04 -59.86 L 255.21 -51.15 L 256.11 -49.13 L 256.35 -43.77 L 257.15 -60.03 L 257.63 -79.90 L 258.19 -52.31 L 258.71 -57.67 L 259.23 -55.27 L 259.30 -54.67 L 259.85 -56.73 L 260.65 -68.78 L 261.34 -64.84 L 261.82 -60.85 L 262.17 -69.00 L 262.69 -65.14 L 263.35 -63.12 L 263.73 -60.46 L 264.46 -56.55 L 265.43 -66.94 L 265.88 -49.17 L 266.43 -61.36 L 266.67 -64.92 L 267.47 -62.78 L 267.96 -50.42 L 268.47 -43.04 L 268.86 -50.42 L 269.51 -70.20 L 270.07 -62.95 L 270.41 -48.87 L 271.07 -56.38 L 271.59 -53.29 L 272.11 -60.12 L 272.67 -49.65 L 272.84 -48.57 L 273.70 -49.09 L 274.40 -52.09 L 274.67 -61.62 L 275.19 -50.03 L 275.78 -50.98 L 276.44 -49.22 L 276.82 -48.14 L 277.27 -48.62 L 277.93 -44.37 L 278.52 -41.28 L 278.80 -41.75 L 279.39 -47.03 L 280.18 -47.50 L 280.36 -42.74 L 281.08 -13.86 L 281.74 -48.66 L 281.91 -44.50 L 282.64 -44.02 L 283.30 -44.93 L 283.82 -46.30 L 283.96 -45.01 L 284.86 -34.11 L 285.45 -39.13 L 286.00 -42.35 L 286.76 -41.15 L 287.53 -49.73 L 288.01 -49.73 L 288.53 -53.98 L 288.60 -51.83 L 289.15 -45.27 L 289.64 -46.13 L 290.64 -56.51 L 291.16 -68.10 L 291.65 -44.58 L 292.20 -49.47 L 292.69 -50.33 L 293.24 -48.53 L 293.59 -49.35 L 294.24 -81.31 L 294.76 -133.96 L 295.15 -71.53 L 295.66 -64.66 L 296.39 -77.97 L 297.40 -68.23 L 297.81 -63.81 L 298.37 -65.87 L 298.82 -60.72 L 299.37 -62.82 L 299.93 -68.78 L 300.41 -52.82 L 300.93 -53.98 L 301.48 -55.87 L 302.00 -46.17 L 302.49 -63.16 L 303.01 -56.47 L 303.49 -51.32 L 304.01 -48.14 L 304.60 -52.74 L 305.12 -52.95 L 305.64 -52.13 L 306.09 -71.40 L 306.68 -57.67 L 307.20 -71.14 L 307.72 -65.18 L 308.13 -60.50 L 309.24 -59.60 L 309.73 -48.02 L 310.28 -50.03 L 310.73 -56.04 L 311.25 -51.53 L 311.74 -54.37 L 312.26 -48.92 L 312.81 -44.15 L 313.36 -44.63 L 314.33 -42.61 L 315.23 -39.26 L 315.75 -42.99 L 315.89 -42.27 L 316.38 -41.54 L 317.38 -37.67 L 317.80 -44.50 L 318.32 -29.78 L 318.46 -52.78 L 319.43 -49.35 L 319.88 -47.80 L 320.01 -49.82 L 320.98 -50.98 L 321.50 -43.55 L 322.06 -65.14 L 322.58 -59.21 L 323.06 -60.03 L 323.58 -56.94 L 324.10 -54.54 L 325.21 -57.71 L 325.66 -41.71 L 326.18 -52.13 L 326.70 -53.42 L 327.22 -54.02 L 327.60 -53.55 L 328.26 -51.83 L 328.81 -62.22 L 329.85 -52.39 L 330.37 -47.54 L 330.89 -47.63 L 331.41 -45.27 L 332.41 -54.62 L 332.93 -61.32 L 333.45 -63.93 L 333.90 -44.80 L 334.42 -49.30 L 334.91 -66.34 L 335.57 -54.54 L 335.98 -46.56 L 336.19 -42.39 L 337.23 -46.43 L 337.54 -47.41 L 337.89 -50.72 L 338.55 -56.08 L 339.13 -57.03 L 339.79 -54.58 L 340.14 -46.99 L 340.62 -55.01 L 341.35 -50.46 L 341.70 -54.84 L 342.22 -62.73 L 342.67 -53.42 L 343.19 -59.90 L 344.43 -45.48 L 344.95 -21.54 L 345.47 -40.76 L 345.75 -43.08 L 346.34 -39.99 L 346.51 -44.28 L 347.27 -43.85 L 348.17 -43.98 L 348.35 -45.53 L 348.87 -44.71 L 349.42 -45.48 L 349.87 -57.07 L 350.84 -40.51 L 351.36 -47.29 L 351.81 -49.47 L 351.95 -47.80 L 352.82 -53.59 L 353.34 -34.07 L 353.51 -45.48 L 354.44 -47.16 L 355.03 -62.05 L 355.55 -55.44 L 356.00 -58.10 L 356.52 -46.73 L 357.04 -45.35 L 357.60 -82.56 L 358.12 -42.01 L 359.15 -45.01 L 360.02 -44.67 L 360.68 -51.19 L 360.92 -53.38 L 361.44 -56.55 L 361.96 -46.51 L 362.62 -44.71 L 363.28 -55.14 L 363.66 -56.17 L 364.35 -54.67 L 364.87 -52.95 L 365.39 -50.50 L 365.84 -52.61 L 366.81 -47.76 L 367.36 -31.28 L 367.95 -32.91 L 368.37 -61.57 L 368.92 -45.66 L 369.48 -52.05 L 370.03 -47.97 L 370.20 -56.98 L 371.07 -46.86 L 371.52 -47.54 L 371.73 -42.05 L 372.39 -49.00 L 373.29 -45.40 L 374.15 -49.43 L 374.57 -57.20 L 375.33 -49.43 L 375.85 -47.50 L 376.09 -49.86 L 376.72 -39.56 L 377.41 -28.79 L 377.93 -58.74 L 378.20 -56.08 L 378.79 -47.11 L 379.45 -63.63 L 379.97 -46.08 L 380.28 -18.84 L 381.01 -39.00 L 381.32 -32.74 L 381.81 -43.30 L 382.19 -47.93 L 382.85 -56.25 L 383.37 -57.37 L 384.23 -62.35 L 384.44 -34.80 L 384.92 -37.97 L 385.65 -9.53 L 386.45 -37.89 L 387.31 -45.74 L 387.45 -40.89 L 388.04 -35.83 L 388.56 -44.97 L 389.39 -47.80 L 389.77 -36.39 L 390.05 -44.84 L 390.88 -38.27 L 391.16 -54.84 L 392.09 -44.15 L 392.61 -44.11 L 393.13 -46.00 L 393.17 -41.84 L 394.03 -56.81 L 394.66 -48.57 L 394.76 -42.91 L 395.42 -37.25 L 395.94 -37.72 L 396.46 -36.90 L 396.98 -40.12 L 397.50 -40.89 L 397.84 -41.58 L 398.36 -43.47 L 399.33 -40.81 L 400.20 -42.91 L 400.82 -41.75 L 401.41 -47.07 L 401.86 -49.47 L 402.38 -36.73 L 403.01 -51.41 L 403.46 -51.79 L 403.97 -53.42 L 404.46 -55.27 L 405.01 -52.61 L 405.36 -51.83 L 405.74 -44.88 L 406.40 -49.47 L 407.06 -45.87 L 407.79 -39.35 L 407.96 -44.63 L 408.65 -55.82 L 409.17 -48.10 L 409.62 -44.54 L 410.21 -52.86 L 410.63 -50.07 L 411.18 -40.72 L 411.70 -57.37 L 412.43 -82.47 L 412.70 -49.86 L 413.47 -49.30 L 413.99 -41.88 L 414.26 -46.64 L 414.78 -46.90 L 415.51 -47.63 L 416.17 -44.63 L 416.69 -44.37 L 417.38 -47.11 L 417.93 -56.51 L 418.38 -43.34 L 418.97 -36.90 L 419.63 -35.19 L 420.15 -45.78 L 420.67 -37.67 L 421.33 -45.14 L 421.71 -50.29 L 422.44 -39.05 L 422.96 -37.80 L 423.48 -37.67 L 423.54 -47.20 L 424.51 -63.76 L 425.03 -48.87 L 425.45 -58.53 L 426.04 -65.35 L 426.63 -55.61 L 427.15 -42.99 L 427.35 -30.08 L 428.12 -46.60 L 428.53 -47.29 L 429.23 -57.50 L 429.78 -47.71 L 430.09 -53.89 L 430.75 -51.71 L 430.96 -50.50 L 431.82 -46.77 L 432.52 -47.29 L 433.04 -46.21 L 433.83 -45.96 L 434.07 -45.83 L 434.80 -50.93 L 435.32 -49.47 L 435.84 -46.08 L 436.36 -46.43 L 436.91 -55.78 L 437.30 -53.72 L 437.68 -51.10 L 438.44 -48.36 L 438.99 -58.91 L 439.51 -47.84 L 440.03 -54.71 L 440.55 -47.67 L 441.07 -48.19 L 441.28 -44.37 L 442.08 -50.46 L 442.66 -98.22 L 443.11 -40.46 L 443.46 -46.21 L 444.36 -26.35 L 444.60 -45.35 L 445.12 -32.70 L 445.68 -39.91 L 446.13 -37.63 L 446.75 -52.35 L 447.31 -52.99 L 447.79 -53.55 L 448.31 -43.77 L 449.00 -43.25 L 449.52 -52.26 L 449.80 -52.69 L 450.32 -51.15 L 451.05 -42.31 L 451.57 -42.27 L 451.88 -45.14 L 452.61 -53.51 L 452.88 -41.62 L 453.40 -42.87 L 453.92 -47.93 L 454.44 -43.34 L 454.96 -43.30 L 455.86 -41.15 L 456.35 -52.56 L 456.52 -44.67 L 457.25 -47.54 L 457.97 -47.89 L 458.11 -54.07 L 459.01 -40.89 L 459.53 -45.91 L 459.81 -49.30 L 460.05 -65.95 L 461.09 -55.27 L 461.61 -50.20 L 461.68 -57.76 L 462.55 -67.20 L 463.65 -48.23 L 464.21 -51.79 L 464.28 -61.53 L 465.11 -62.35 L 465.77 -52.05 L 465.84 -47.24 L 466.81 -54.54 L 467.71 -52.35 L 468.40 -53.81 L 468.57 -38.23 L 469.44 -53.16 L 469.89 -57.03 L 470.41 -48.62 L 470.86 -49.43 L 471.45 -55.95 L 472.18 -53.72 L 472.69 -54.24 L 473.49 -63.89 L 474.01 -47.24 L 474.53 -50.42 L 475.05 -28.28 L 476.12 -51.32 L 476.57 -43.77 L 476.82 -54.41 L 477.61 -34.76 L 478.20 -48.53 L 478.51 -86.42 L 478.72 -53.85 L 479.66 -48.32 L 480.56 -46.94 L 481.22 -48.27 L 481.74 -50.33 L 482.32 -49.69 L 482.98 -57.67 L 483.29 -53.77 L 483.88 -59.47 L 484.54 -40.03 L 485.06 -49.69 L 485.34 -48.53 L 486.06 -39.61 L 486.38 -46.13 L 487.00 -34.37 L 487.42 -47.46 L 488.28 -44.11 L 489.01 -47.59 L 489.70 -45.48 L 490.08 -47.59 L 490.71 -32.05 L 491.40 -40.42 L 491.75 -52.48 L 492.40 -54.79 L 492.78 -53.25 L 493.30 -40.03 L 493.65 -49.00 L 494.17 -55.05 L 495.00 -59.43 L 495.11 -57.41 L 496.18 -64.84 L 496.66 -39.48 L 497.04 -63.08 L 497.70 -38.70 L 498.22 -51.45 L 498.81 -53.94 L 499.12 -50.42 L 499.82 -55.82 L 499.99 -50.20 L 500.34 -70.03 L 501.37 -48.70 L 501.82 -36.82 L 502.34 -34.93 L 502.86 -51.53 L 503.07 -53.16 L 503.59 -54.24 L 503.94 -56.77 L 504.91 -51.71 L 505.15 -49.82 L 506.02 -52.61 L 506.54 -53.04 L 506.99 -49.00 L 507.47 -60.37 L 508.06 -49.95 L 508.51 -56.17 L 509.10 -48.57 L 509.55 -55.35 L 510.14 -54.41 L 510.66 -61.36 L 511.14 -60.67 L 511.66 -66.77 L 511.83 -95.94 L 512.67 -39.18 L 513.22 -50.63 L 513.74 -57.58 L 514.12 -54.88 L 514.67 -52.78 L 515.44 -31.97 L 515.96 -24.80 L 516.61 -81.06 L 517.34 -71.36 L 517.72 -54.37 L 518.66 -46.04 L 518.83 -45.61 L 519.35 -44.80 L 520.08 -47.07 L 520.39 -45.23 L 521.26 -44.88 L 521.78 -41.02 L 522.36 -41.41 L 522.81 -38.62 L 523.33 -42.14 L 523.92 -42.44 L 524.44 -59.09 L 524.86 -45.87 L 525.45 -46.51 L 526.00 -47.67 L 526.52 -47.07 L 526.56 -47.59 L 527.46 -49.73 L 528.63 -46.69 L 529.12 -50.46 L 529.64 -45.61 L 530.16 -39.78 L 530.64 -56.81 L 531.16 -57.33 L 531.20 -51.15 L 532.24 -48.32 L 532.72 -52.01 L 533.24 -48.66 L 534.14 -46.56 L 534.87 -42.57 L 535.87 -47.63 L 536.05 -51.41 L 537.43 -48.79 L 537.81 -48.57 L 538.37 -52.56 L 538.96 -47.16 L 539.13 -46.99 L 539.89 -51.83 L 540.51 -47.67 L 540.93 -50.55 L 541.45 -53.08 L 541.97 -45.14 L 542.52 -52.95 L 542.97 -53.21 L 543.49 -45.01 L 544.08 -46.60 L 544.57 -58.31 L 544.81 -56.30 L 545.61 -45.23 L 546.33 -25.02 L 546.65 -26.65 L 547.37 -18.32 L 547.61 -29.48 L 548.41 -14.72 L 548.76 -42.27 L 549.28 -40.63 L 549.66 -35.14 L 550.25 -21.97 L 550.97 -34.71 L 551.25 -28.62 L 551.84 -39.86 L 552.36 -41.71 L 553.92 -38.19 L 554.37 -37.16 L 554.89 -35.91 L 555.41 -40.76 L 556.27 -50.07 L 556.79 -60.59 L 558.04 -33.86 L 559.05 -41.66 L 559.56 -34.76 L 560.26 -28.79 L 560.57 -46.90 L 561.64 -44.33 L 563.13 -42.05 L 563.86 -58.18 L 564.66 -49.77 L 565.18 -41.28 L 565.70 -38.70 L 566.08 -34.33 L 566.67 -35.61 L 567.25 -35.61 L 567.46 -36.34 L 568.12 -44.28 L 568.78 -38.49 L 569.30 -38.10 L 570.20 -43.38 L 570.72 -40.33 L 571.20 -36.56 L 571.93 -43.64 L 572.24 -47.07 L 572.90 -51.10 L 573.49 -47.41 L 573.87 -45.91 L 574.46 -46.17 L 575.01 -46.34 L 575.32 -47.41 L 575.71 -47.93 L 576.57 -50.68 L 577.54 -51.79 L 578.13 -55.18 L 578.27 -54.97 L 578.79 -52.18 L 579.83 -73.12 L 580.14 -47.50 L 580.69 -57.11 L 581.21 -42.78 L 581.73 -66.51 L 582.04 -61.27 L 582.70 -52.61 L 583.05 -50.63 L 583.67 -50.59 L 584.47 -48.92 L 584.75 -47.41 L 585.27 -53.34 L 585.78 -53.77 L 586.24 -45.27 L 586.82 -38.06 L 587.55 -39.05 L 588.07 -46.26 L 588.35 -48.79 L 589.25 -41.97 L 589.42 -42.61 L 590.11 -104.57 L 590.95 -43.55 L 591.67 -43.64 L 592.33 -37.80 L 592.50 -33.64 L 593.37 -23.51 L 593.96 -31.92 L 594.06 -31.07 L 595.00 -33.13 L 595.10 -33.94 L 595.59 -35.06 L 596.14 -31.24 L 597.08 -29.65 L 597.60 -33.90 L 598.12 -36.99 L 598.67 -34.50 L 599.19 -31.28 L 600.06 -31.54 L 600.71 -31.37 L 601.23 -33.17 L 601.82 -31.80 L 602.48 -29.48 L 603.14 -28.75 L 603.83 -28.15 L 604.04 -28.96 L 604.56 -27.93 L 605.35 -28.45 L 605.42 -28.96 L 606.08 -28.83 L 606.84 -29.61 L 607.36 -30.21 L 607.99 -36.26 L 608.68 -40.25 L 609.48 -48.83 L 610.52 -51.49 L 611.17 -48.53 L 611.52 -47.67 L 612.07 -62.78 L 612.56 -45.57 L 613.08 -60.07 L 613.67 -49.43 L 614.33 -46.21 L 615.19 -44.37 L 615.88 -62.09 L 616.13 -61.15 L 616.92 -52.74 L 617.69 -53.51 L 618.10 -48.62 L 618.97 -47.89 L 619.80 -42.74 L 620.28 -45.83 L 620.80 -47.63 L 621.32 -51.02 L 622.88 -45.10 L 623.44 -42.57 L 623.89 -43.55 L 624.47 -44.84 L 624.92 -44.28 L 625.44 -44.58 L 626.17 -41.41 L 626.69 -47.54 L 627.21 -43.12 L 627.73 -43.60 L 628.25 -42.27 L 629.84 -51.02 L 630.09 -39.65 L 630.81 -36.73 L 631.85 -41.54 L 632.51 -42.95 L 632.65 -42.82 L 634.07 -38.40 L 634.42 -38.70 L 635.77 -39.65 L 636.25 -49.95 L 637.15 -46.17 L 639.30 -42.99 L 639.82 -45.05 L 640.34 -44.28 L 640.86 -44.71 L 641.38 -51.10 L 641.90 -51.62 L 642.31 -50.33 L 643.18 -50.59 L 644.01 -51.36 L 644.04 -51.62 L 645.05 -34.54 L 646.05 -35.74 L 646.61 -38.23 L 647.06 -43.04 L 648.10 -45.57 L 648.69 -46.69 L 649.52 -49.73 L 650.04 -50.42 L 650.73 -41.06 L 651.21 -50.55 L 651.70 -55.01 L 652.22 -49.43" fill="none" stroke="rgb(255,0,0)" stroke-width="2"/>
</g>
<path d="M 0.00 0.00 L 652.22 0.00" fill="none" stroke="rgb(51,51,51)" stroke-width="1.4173225"/>
<path d="M 117.91 0.00 L 117.91 -8.00" fill="none" stroke="rgb(51,51,51)" stroke-width="2.5"/>
<g transform="translate(117.91436506871837,6) rotate(0.000)">
<text x="0.00" y="15.40" font-family="Arial,Helvetica,sans-serif" font-size="15.400000000000002" text-anchor="middle" stroke="none" fill="rgb(0,0,0)">2023 </text>
</g>
<path d="M 308.77 0.00 L 308.77 -8.00" fill="none" stroke="rgb(51,51,51)" stroke-width="2.5"/>
<g transform="translate(308.77354670490183,6) rotate(0.000)">
<text x="0.00" y="15.40" font-family="Arial,Helvetica,sans-serif" font-size="15.400000000000002" text-anchor="middle" stroke="none" fill="rgb(0,0,0)">2024 </text>
</g>
<path d="M 500.16 0.00 L 500.16 -8.00" fill="none" stroke="rgb(51,51,51)" stroke-width="2.5"/>
<g transform="translate(500.1556302085816,6) rotate(0.000)">
<text x="0.00" y="15.40" font-family="Arial,Helvetica,sans-serif" font-size="15.400000000000002" text-anchor="middle" stroke="none" fill="rgb(0,0,0)">2025 </text>
</g>
<path d="M 21.70 0.00 L 21.70 -4.00" fill="none" stroke="rgb(51,51,51)" stroke-width="2.5"/>
<path d="M 54.12 0.00 L 54.12 -4.00" fill="none" stroke="rgb(51,51,51)" stroke-width="2.5"/>
<path d="M 86.02 0.00 L 86.02 -4.00" fill="none" stroke="rgb(51,51,51)" stroke-width="2.5"/>
<path d="M 117.91 0.00 L 117.91 -4.00" fill="none" stroke="rgb(51,51,51)" stroke-width="2.5"/>
<path d="M 148.77 0.00 L 148.77 -4.00" fill="none" stroke="rgb(51,51,51)" stroke-width="2.5"/>
<path d="M 180.66 0.00 L 180.66 -4.00" fill="none" stroke="rgb(51,51,51)" stroke-width="2.5"/>
<path d="M 212.56 0.00 L 212.56 -4.00" fill="none" stroke="rgb(51,51,51)" stroke-width="2.5"/>
<path d="M 244.98 0.00 L 244.98 -4.00" fill="none" stroke="rgb(51,51,51)" stroke-width="2.5"/>
<path d="M 276.88 0.00 L 276.88 -4.00" fill="none" stroke="rgb(51,51,51)" stroke-width="2.5"/>
<path d="M 308.77 0.00 L 308.77 -4.00" fill="none" stroke="rgb(51,51,51)" stroke-width="2.5"/>
<path d="M 340.15 0.00 L 340.15 -4.00" fill="none" stroke="rgb(51,51,51)" stroke-width="2.5"/>
<path d="M 372.04 0.00 L 372.04 -4.00" fill="none" stroke="rgb(51,51,51)" stroke-width="2.5"/>
<path d="M 403.94 0.00 L 403.94 -4.00" fill="none" stroke="rgb(51,51,51)" stroke-width="2.5"/>
<path d="M 436.36 0.00 L 436.36 -4.00" fill="none" stroke="rgb(51,51,51)" stroke-width="2.5"/>
<path d="M 468.26 0.00 L 468.26 -4.00" fill="none" stroke="rgb(51,51,51)" stroke-width="2.5"/>
<path d="M 500.16 0.00 L 500.16 -4.00" fill="none" stroke="rgb(51,51,51)" stroke-width="2.5"/>
<path d="M 531.01 0.00 L 531.01 -4.00" fill="none" stroke="rgb(51,51,51)" stroke-width="2.5"/>
<path d="M 562.90 0.00 L 562.90 -4.00" fill="none" stroke="rgb(51,51,51)" stroke-width="2.5"/>
<path d="M 594.80 0.00 L 594.80 -4.00" fill="none" stroke="rgb(51,51,51)" stroke-width="2.5"/>
<path d="M 627.22 0.00 L 627.22 -4.00" fill="none" stroke="rgb(51,51,51)" stroke-width="2.5"/>
<path d="M 0.00 -163.05 L 652.22 -163.05" fill="none" stroke="rgb(51,51,51)" stroke-width="1.4173225"/>
<path d="M 117.91 -163.05 L 117.91 -155.05" fill="none" stroke="rgb(51,51,51)" stroke-width="2.5"/>
<path d="M 308.77 -163.05 L 308.77 -155.05" fill="none" stroke="rgb(51,51,51)" stroke-width="2.5"/>
<path d="M 500.16 -163.05 L 500.16 -155.05" fill="none" stroke="rgb(51,51,51)" stroke-width="2.5"/>
<path d="M 21.70 -163.05 L 21.70 -159.05" fill="none" stroke="rgb(51,51,51)" stroke-width="2.5"/>
<path d="M 54.12 -163.05 L 54.12 -159.05" fill="none" stroke="rgb(51,51,51)" stroke-width="2.5"/>
<path d="M 86.02 -163.05 L 86.02 -159.05" fill="none" stroke="rgb(51,51,51)" stroke-width="2.5"/>
<path d="M 117.91 -163.05 L 117.91 -159.05" fill="none" stroke="rgb(51,51,51)" stroke-width="2.5"/>
<path d="M 148.77 -163.05 L 148.77 -159.05" fill="none" stroke="rgb(51,51,51)" stroke-width="2.5"/>
<path d="M 180.66 -163.05 L 180.66 -159.05" fill="none" stroke="rgb(51,51,51)" stroke-width="2.5"/>
<path d="M 212.56 -163.05 L 212.56 -159.05" fill="none" stroke="rgb(51,51,51)" stroke-width="2.5"/>
<path d="M 244.98 -163.05 L 244.98 -159.05" fill="none" stroke="rgb(51,51,51)" stroke-width="2.5"/>
<path d="M 276.88 -163.05 L 276.88 -159.05" fill="none" stroke="rgb(51,51,51)" stroke-width="2.5"/>
<path d="M 308.77 -163.05 L 308.77 -159.05" fill="none" stroke="rgb(51,51,51)" stroke-width="2.5"/>
<path d="M 340.15 -163.05 L 340.15 -159.05" fill="none" stroke="rgb(51,51,51)" stroke-width="2.5"/>
<path d="M 372.04 -163.05 L 372.04 -159.05" fill="none" stroke="rgb(51,51,51)" stroke-width="2.5"/>
<path d="M 403.94 -163.05 L 403.94 -159.05" fill="none" stroke="rgb(51,51,51)" stroke-width="2.5"/>
<path d="M 436.36 -163.05 L 436.36 -159.05" fill="none" stroke="rgb(51,51,51)" stroke-width="2.5"/>
<path d="M 468.26 -163.05 L 468.26 -159.05" fill="none" stroke="rgb(51,51,51)" stroke-width="2.5"/>
<path d="M 500.16 -163.05 L 500.16 -159.05" fill="none" stroke="rgb(51,51,51)" stroke-width="2.5"/>
<path d="M 531.01 -163.05 L 531.01 -159.05" fill="none" stroke="rgb(51,51,51)" stroke-width="2.5"/>
<path d="M 562.90 -163.05 L 562.90 -159.05" fill="none" stroke="rgb(51,51,51)" stroke-width="2.5"/>
<path d="M 594.80 -163.05 L 594.80 -159.05" fill="none" stroke="rgb(51,51,51)" stroke-width="2.5"/>
<path d="M 627.22 -163.05 L 627.22 -159.05" fill="none" stroke="rgb(51,51,51)" stroke-width="2.5"/>
<path d="M 0.00 0.00 L 0.00 -163.05" fill="none" stroke="rgb(51,51,51)" stroke-width="1.4173225"/>
<path d="M 0.00 -72.95 L 8.00 -72.95" fill="none" stroke="rgb(51,51,51)" stroke-width="2.5"/>
<g transform="translate(-6,-72.94551809210526) rotate(0.000)">
<text x="0.00" y="7.70" font-family="Arial,Helvetica,sans-serif" font-size="15.400000000000002" text-anchor="end" stroke="none" fill="rgb(0,0,0)">2×10⁻⁴</text>
</g>
<path d="M 0.00 -158.76 L 8.00 -158.76" fill="none" stroke="rgb(51,51,51)" stroke-width="2.5"/>
<g transform="translate(-6,-158.76377467105263) rotate(0.000)">
<text x="0.00" y="7.70" font-family="Arial,Helvetica,sans-serif" font-size="15.400000000000002" text-anchor="end" stroke="none" fill="rgb(0,0,0)">4×10⁻⁴</text>
</g>
<path d="M 0.00 -8.58 L 4.00 -8.58" fill="none" stroke="rgb(51,51,51)" stroke-width="2.5"/>
<path d="M 0.00 -30.04 L 4.00 -30.04" fill="none" stroke="rgb(51,51,51)" stroke-width="2.5"/>
<path d="M 0.00 -51.49 L 4.00 -51.49" fill="none" stroke="rgb(51,51,51)" stroke-width="2.5"/>
<path d="M 0.00 -72.95 L 4.00 -72.95" fill="none" stroke="rgb(51,51,51)" stroke-width="2.5"/>
<path d="M 0.00 -94.40 L 4.00 -94.40" fill="none" stroke="rgb(51,51,51)" stroke-width="2.5"/>
<path d="M 0.00 -115.85 L 4.00 -115.85" fill="none" stroke="rgb(51,51,51)" stroke-width="2.5"/>
<path d="M 0.00 -137.31 L 4.00 -137.31" fill="none" stroke="rgb(51,51,51)" stroke-width="2.5"/>
<path d="M 0.00 -158.76 L 4.00 -158.76" fill="none" stroke="rgb(51,51,51)" stroke-width="2.5"/>
<g transform="translate(-77.857421875,-81.52734375000001) rotate(-90.000)">
<text x="0.00" y="16.80" font-family="Arial,Helvetica,sans-serif" font-size="16.8" text-anchor="middle" stroke="none" fill="rgb(0,0,0)">Eccentricity</text>
</g>
<path d="M 652.22 0.00 L 652.22 -163.05" fill="none" stroke="rgb(51,51,51)" stroke-width="1.4173225"/>
<path d="M 652.22 -72.95 L 644.22 -72.95" fill="none" stroke="rgb(51,51,51)" stroke-width="2.5"/>
<path d="M 652.22 -158.76 L 644.22 -158.76" fill="none" stroke="rgb(51,51,51)" stroke-width="2.5"/>
<path d="M 652.22 -8.58 L 648.22 -8.58" fill="none" stroke="rgb(51,51,51)" stroke-width="2.5"/>
<path d="M 652.22 -30.04 L 648.22 -30.04" fill="none" stroke="rgb(51,51,51)" stroke-width="2.5"/>
<path d="M 652.22 -51.49 L 648.22 -51.49" fill="none" stroke="rgb(51,51,51)" stroke-width="2.5"/>
<path d="M 652.22 -72.95 L 648.22 -72.95" fill="none" stroke="rgb(51,51,51)" stroke-width="2.5"/>
<path d="M 652.22 -94.40 L 648.22 -94.40" fill="none" stroke="rgb(51,51,51)" stroke-width="2.5"/>
<path d="M 652.22 -115.85 L 648.22 -115.85" fill="none" stroke="rgb(51,51,51)" stroke-width="2.5"/>
<path d="M 652.22 -137.31 L 648.22 -137.31" fill="none" stroke="rgb(51,51,51)" stroke-width="2.5"/>
<path d="M 652.22 -158.76 L 648.22 -158.76" fill="none" stroke="rgb(51,51,51)" stroke-width="2.5"/>
<path d="M 117.48 -245.25 L 117.48 -407.70" fill="none" stroke="rgb(204,204,204)" stroke-width="0.8"/>
<path d="M 307.63 -245.25 L 307.63 -407.70" fill="none" stroke="rgb(204,204,204)" stroke-width="0.8"/>
<path d="M 498.30 -245.25 L 498.30 -407.70" fill="none" stroke="rgb(204,204,204)" stroke-width="0.8"/>
<path d="M 21.62 -245.25 L 21.62 -407.70" fill="none" stroke="rgb(204,204,204)" stroke-width="0.5"/>
<path d="M 53.92 -245.25 L 53.92 -407.70" fill="none" stroke="rgb(204,204,204)" stroke-width="0.5"/>
<path d="M 85.70 -245.25 L 85.70 -407.70" fill="none" stroke="rgb(204,204,204)" stroke-width="0.5"/>
<path d="M 117.48 -245.25 L 117.48 -407.70" fill="none" stroke="rgb(204,204,204)" stroke-width="0.5"/>
<path d="M 148.21 -245.25 L 148.21 -407.70" fill="none" stroke="rgb(204,204,204)" stroke-width="0.5"/>
<path d="M 179.99 -245.25 L 179.99 -407.70" fill="none" stroke="rgb(204,204,204)" stroke-width="0.5"/>
<path d="M 211.77 -245.25 L 211.77 -407.70" fill="none" stroke="rgb(204,204,204)" stroke-width="0.5"/>
<path d="M 244.07 -245.25 L 244.07 -407.70" fill="none" stroke="rgb(204,204,204)" stroke-width="0.5"/>
<path d="M 275.85 -245.25 L 275.85 -407.70" fill="none" stroke="rgb(204,204,204)" stroke-width="0.5"/>
<path d="M 307.63 -245.25 L 307.63 -407.70" fill="none" stroke="rgb(204,204,204)" stroke-width="0.5"/>
<path d="M 338.89 -245.25 L 338.89 -407.70" fill="none" stroke="rgb(204,204,204)" stroke-width="0.5"/>
<path d="M 370.67 -245.25 L 370.67 -407.70" fill="none" stroke="rgb(204,204,204)" stroke-width="0.5"/>
<path d="M 402.45 -245.25 L 402.45 -407.70" fill="none" stroke="rgb(204,204,204)" stroke-width="0.5"/>
<path d="M 434.75 -245.25 L 434.75 -407.70" fill="none" stroke="rgb(204,204,204)" stroke-width="0.5"/>
<path d="M 466.52 -245.25 L 466.52 -407.70" fill="none" stroke="rgb(204,204,204)" stroke-width="0.5"/>
<path d="M 498.30 -245.25 L 498.30 -407.70" fill="none" stroke="rgb(204,204,204)" stroke-width="0.5"/>
<path d="M 529.04 -245.25 L 529.04 -407.70" fill="none" stroke="rgb(204,204,204)" stroke-width="0.5"/>
<path d="M 560.82 -245.25 L 560.82 -407.70" fill="none" stroke="rgb(204,204,204)" stroke-width="0.5"/>
<path d="M 592.60 -245.25 L 592.60 -407.70" fill="none" stroke="rgb(204,204,204)" stroke-width="0.5"/>
<path d="M 624.90 -245.25 L 624.90 -407.70" fill="none" stroke="rgb(204,204,204)" stroke-width="0.5"/>
<path d="M 0.00 -260.02 L 649.80 -260.02" fill="none" stroke="rgb(204,204,204)" stroke-width="0.8"/>
<path d="M 0.00 -319.09 L 649.80 -319.09" fill="none" stroke="rgb(204,204,204)" stroke-width="0.8"/>
<path d="M 0.00 -378.16 L 649.80 -378.16" fill="none" stroke="rgb(204,204,204)" stroke-width="0.8"/>
<path d="M 0.00 -260.02 L 649.80 -260.02" fill="none" stroke="rgb(204,204,204)" stroke-width="0.5"/>
<path d="M 0.00 -289.55 L 649.80 -289.55" fill="none" stroke="rgb(204,204,204)" stroke-width="0.5"/>
<path d="M 0.00 -319.09 L 649.80 -319.09" fill="none" stroke="rgb(204,204,204)" stroke-width="0.5"/>
<path d="M 0.00 -348.63 L 649.80 -348.63" fill="none" stroke="rgb(204,204,204)" stroke-width="0.5"/>
<path d="M 0.00 -378.16 L 649.80 -378.16" fill="none" stroke="rgb(204,204,204)" stroke-width="0.5"/>
<g clip-path="url(#clip1)">
<path d="M 0.00 -330.91 L 0.65 -342.72 L 1.17 -339.77 L 2.00 -339.77 L 2.52 -298.42 L 2.71 -307.28 L 3.27 -313.18 L 4.08 -291.03 L 4.60 -293.99 L 4.95 -288.08 L 5.64 -292.51 L 6.18 -329.43 L 6.34 -288.08 L 7.21 -286.60 L 7.47 -304.32 L 7.74 -302.85 L 8.77 -296.94 L 9.12 -292.51 L 9.81 -288.08 L 10.16 -285.12 L 10.85 -277.74 L 11.20 -279.22 L 11.72 -270.36 L 12.11 -273.31 L 12.63 -265.93 L 13.15 -280.69 L 13.68 -286.60 L 13.76 -291.03 L 16.06 -293.99 L 16.58 -293.99 L 17.11 -338.29 L 17.63 -296.94 L 18.15 -296.94 L 18.49 -302.85 L 19.19 -292.51 L 19.71 -291.03 L 20.06 -286.60 L 20.45 -286.60 L 21.10 -282.17 L 21.62 -307.28 L 22.31 -336.81 L 22.66 -341.24 L 23.05 -338.29 L 23.70 -339.77 L 24.40 -335.34 L 24.75 -339.77 L 25.43 -288.08 L 25.96 -336.81 L 26.14 -338.29 L 27.00 -302.85 L 27.22 -332.38 L 28.05 -336.81 L 28.39 -338.29 L 29.09 -339.77 L 29.43 -342.72 L 30.13 -339.77 L 30.48 -339.77 L 31.17 -341.24 L 31.69 -341.24 L 32.04 -342.72 L 32.73 -341.24 L 32.95 -341.24 L 33.78 -339.77 L 34.12 -336.81 L 34.82 -339.77 L 35.17 -335.34 L 35.56 -341.24 L 36.38 -338.29 L 36.90 -338.29 L 37.25 -336.81 L 37.94 -336.81 L 38.29 -291.03 L 38.81 -317.61 L 39.51 -327.95 L 40.03 -326.48 L 40.37 -336.81 L 41.07 -317.61 L 41.57 -336.81 L 42.11 -325.00 L 42.33 -322.04 L 42.85 -326.48 L 43.67 -330.91 L 43.89 -323.52 L 44.72 -327.95 L 45.06 -329.43 L 45.58 -333.86 L 46.11 -335.34 L 46.37 -335.34 L 47.02 -323.52 L 47.67 -316.14 L 48.19 -314.66 L 48.58 -319.09 L 49.40 -329.43 L 49.62 -330.91 L 50.45 -326.48 L 50.66 -322.04 L 51.18 -311.71 L 52.01 -301.37 L 52.53 -302.85 L 52.75 -305.80 L 53.27 -307.28 L 53.92 -308.75 L 54.61 -304.32 L 54.96 -327.95 L 55.66 -341.24 L 56.00 -341.24 L 56.70 -326.48 L 56.92 -327.95 L 57.44 -323.52 L 58.09 -316.14 L 58.61 -311.71 L 59.30 -314.66 L 59.65 -323.52 L 60.17 -333.86 L 60.87 -338.29 L 61.21 -341.24 L 61.74 -351.58 L 62.05 -348.63 L 62.60 -329.43 L 63.29 -335.34 L 63.78 -330.91 L 64.33 -335.34 L 64.74 -345.67 L 65.33 -345.67 L 65.85 -356.01 L 66.36 -353.06 L 66.78 -329.43 L 67.30 -341.24 L 67.81 -335.34 L 68.33 -330.91 L 69.19 -347.15 L 69.64 -333.86 L 70.19 -330.91 L 70.44 -327.95 L 71.23 -325.00 L 71.47 -326.48 L 71.99 -336.81 L 72.57 -327.95 L 73.02 -336.81 L 73.51 -345.67 L 74.06 -339.77 L 74.47 -335.34 L 75.37 -335.34 L 75.58 -335.34 L 76.16 -348.63 L 76.99 -344.20 L 77.51 -351.58 L 77.85 -353.06 L 78.20 -350.10 L 78.89 -341.24 L 79.17 -342.72 L 79.75 -344.20 L 80.58 -345.67 L 81.10 -364.87 L 81.65 -370.78 L 82.03 -376.69 L 82.31 -363.40 L 83.27 -364.87 L 83.72 -382.59 L 83.79 -369.30 L 84.38 -369.30 L 85.34 -384.07 L 85.62 -373.73 L 86.34 -360.44 L 86.72 -366.35 L 87.38 -358.97 L 87.45 -366.35 L 88.41 -366.35 L 88.93 -372.26 L 89.45 -361.92 L 90.31 -357.49 L 91.04 -351.58 L 91.35 -350.10 L 92.07 -361.92 L 92.56 -357.49 L 93.14 -348.63 L 93.59 -360.44 L 93.97 -357.49 L 94.63 -357.49 L 95.14 -357.49 L 95.45 -363.40 L 96.11 -345.67 L 96.70 -363.40 L 97.11 -372.26 L 97.70 -373.73 L 98.15 -367.83 L 98.70 -366.35 L 99.25 -375.21 L 99.60 -361.92 L 100.29 -357.49 L 100.80 -366.35 L 101.46 -354.54 L 101.80 -361.92 L 102.49 -367.83 L 102.80 -366.35 L 103.36 -370.78 L 103.74 -367.83 L 104.39 -356.01 L 104.67 -356.01 L 105.43 -356.01 L 105.94 -357.49 L 106.43 -354.54 L 106.88 -357.49 L 107.46 -354.54 L 107.98 -353.06 L 108.43 -344.20 L 108.98 -336.81 L 109.50 -353.06 L 110.19 -358.97 L 110.50 -358.97 L 111.22 -360.44 L 111.88 -370.78 L 112.92 -381.12 L 113.12 -388.50 L 113.78 -366.35 L 114.30 -366.35 L 115.09 -382.59 L 115.54 -369.30 L 115.99 -366.35 L 116.64 -367.83 L 117.02 -364.87 L 117.64 -367.83 L 118.20 -384.07 L 118.23 -397.36 L 119.20 -366.35 L 119.71 -335.34 L 120.75 -316.14 L 121.27 -298.42 L 121.47 -308.75 L 122.13 -285.12 L 122.85 -295.46 L 123.16 -285.12 L 123.65 -274.79 L 124.41 -307.28 L 124.55 -274.79 L 125.37 -333.86 L 125.75 -307.28 L 126.41 -307.28 L 126.82 -298.42 L 127.27 -305.80 L 127.86 -313.18 L 128.48 -327.95 L 129.03 -325.00 L 129.45 -330.91 L 129.51 -327.95 L 130.55 -304.32 L 131.00 -317.61 L 131.52 -311.71 L 132.03 -317.61 L 132.59 -313.18 L 133.10 -308.75 L 133.62 -317.61 L 134.66 -317.61 L 135.17 -311.71 L 135.69 -304.32 L 136.21 -299.89 L 136.73 -283.65 L 137.14 -288.08 L 137.76 -277.74 L 138.18 -293.99 L 138.69 -299.89 L 139.21 -298.42 L 139.80 -286.60 L 140.63 -288.08 L 141.39 -274.79 L 142.01 -296.94 L 142.66 -279.22 L 143.32 -289.55 L 143.84 -283.65 L 144.73 -296.94 L 144.94 -298.42 L 145.80 -305.80 L 146.32 -295.46 L 146.63 -298.42 L 147.15 -299.89 L 147.91 -302.85 L 148.15 -310.23 L 148.67 -305.80 L 149.39 -301.37 L 149.91 -310.23 L 150.22 -308.75 L 150.98 -316.14 L 151.46 -292.51 L 151.98 -314.66 L 153.05 -313.18 L 153.57 -292.51 L 153.64 -298.42 L 154.08 -292.51 L 155.12 -298.42 L 155.64 -301.37 L 156.19 -305.80 L 156.74 -299.89 L 156.88 -301.37 L 157.40 -288.08 L 158.26 -282.17 L 158.78 -279.22 L 159.23 -289.55 L 159.33 -295.46 L 160.19 -307.28 L 160.71 -322.04 L 161.26 -330.91 L 161.64 -326.48 L 162.37 -316.14 L 162.54 -317.61 L 163.33 -329.43 L 163.92 -333.86 L 164.37 -336.81 L 164.95 -347.15 L 165.40 -342.72 L 165.89 -341.24 L 166.40 -338.29 L 166.99 -338.29 L 167.30 -351.58 L 167.96 -341.24 L 168.34 -344.20 L 169.03 -350.10 L 169.06 -333.86 L 169.58 -335.34 L 170.06 -338.29 L 170.51 -344.20 L 171.62 -335.34 L 172.13 -341.24 L 172.62 -330.91 L 173.06 -326.48 L 173.51 -323.52 L 174.10 -310.23 L 174.62 -317.61 L 175.24 -320.57 L 175.55 -319.09 L 176.20 -336.81 L 176.89 -344.20 L 177.65 -305.80 L 178.59 -320.57 L 179.10 -298.42 L 179.62 -302.85 L 180.14 -330.91 L 180.31 -317.61 L 181.00 -314.66 L 181.35 -320.57 L 182.04 -307.28 L 182.31 -307.28 L 183.00 -310.23 L 183.35 -307.28 L 183.87 -310.23 L 184.35 -311.71 L 184.90 -320.57 L 185.63 -316.14 L 186.14 -308.75 L 186.94 -330.91 L 187.45 -317.61 L 188.46 -317.61 L 189.01 -332.38 L 189.35 -317.61 L 190.01 -314.66 L 190.25 -316.14 L 190.91 -329.43 L 191.53 -319.09 L 191.77 -320.57 L 192.08 -316.14 L 193.11 -310.23 L 193.84 -307.28 L 194.46 -313.18 L 195.01 -314.66 L 195.60 -310.23 L 195.87 -310.23 L 196.63 -316.14 L 197.26 -314.66 L 198.29 -322.04 L 198.46 -322.04 L 199.15 -323.52 L 199.77 -319.09 L 200.22 -327.95 L 200.67 -338.29 L 201.29 -338.29 L 201.67 -335.34 L 202.05 -338.29 L 202.71 -339.77 L 203.36 -339.77 L 203.92 -339.77 L 204.43 -329.43 L 204.78 -341.24 L 205.33 -347.15 L 205.99 -348.63 L 206.40 -325.00 L 207.02 -344.20 L 207.40 -344.20 L 208.06 -344.20 L 208.57 -354.54 L 208.71 -345.67 L 209.75 -335.34 L 210.61 -341.24 L 211.06 -366.35 L 211.78 -364.87 L 212.09 -354.54 L 212.96 -356.01 L 213.23 -357.49 L 213.68 -348.63 L 214.37 -327.95 L 214.65 -361.92 L 215.54 -366.35 L 216.13 -357.49 L 216.61 -348.63 L 216.93 -353.06 L 217.34 -330.91 L 217.79 -323.52 L 218.24 -339.77 L 219.17 -336.81 L 220.20 -339.77 L 220.76 -327.95 L 221.27 -322.04 L 221.38 -314.66 L 221.89 -310.23 L 222.45 -308.75 L 223.76 -308.75 L 224.38 -323.52 L 225.41 -307.28 L 225.90 -298.42 L 226.45 -296.94 L 227.35 -298.42 L 227.86 -316.14 L 228.55 -317.61 L 229.24 -316.14 L 229.97 -317.61 L 230.49 -320.57 L 231.18 -332.38 L 232.11 -330.91 L 232.66 -335.34 L 233.35 -257.06 L 234.14 -323.52 L 234.77 -325.00 L 235.18 -342.72 L 236.22 -351.58 L 236.73 -319.09 L 237.80 -320.57 L 238.32 -317.61 L 238.77 -323.52 L 239.29 -322.04 L 240.36 -323.52 L 240.81 -320.57 L 241.43 -319.09 L 241.84 -336.81 L 242.43 -333.86 L 242.84 -333.86 L 244.12 -335.34 L 244.50 -304.32 L 245.05 -341.24 L 245.67 -333.86 L 246.05 -322.04 L 246.46 -339.77 L 246.84 -344.20 L 247.57 -325.00 L 248.09 -361.92 L 248.54 -367.83 L 249.26 -357.49 L 249.78 -363.40 L 250.16 -341.24 L 250.67 -367.83 L 251.30 -366.35 L 251.81 -366.35 L 252.09 -364.87 L 252.99 -367.83 L 253.37 -360.44 L 254.09 -345.67 L 254.26 -348.63 L 255.16 -353.06 L 255.40 -353.06 L 256.20 -345.67 L 256.68 -323.52 L 257.23 -327.95 L 257.75 -327.95 L 258.27 -327.95 L 258.34 -327.95 L 258.89 -320.57 L 259.68 -351.58 L 260.37 -338.29 L 260.85 -311.71 L 261.20 -310.23 L 261.72 -330.91 L 262.37 -332.38 L 262.75 -330.91 L 263.48 -322.04 L 264.44 -338.29 L 264.89 -316.14 L 265.44 -325.00 L 265.69 -326.48 L 266.48 -335.34 L 266.96 -338.29 L 267.48 -336.81 L 267.86 -338.29 L 268.52 -356.01 L 269.07 -336.81 L 269.41 -336.81 L 270.07 -356.01 L 270.59 -344.20 L 271.10 -351.58 L 271.66 -336.81 L 271.83 -338.29 L 272.69 -326.48 L 273.38 -336.81 L 273.66 -335.34 L 274.18 -329.43 L 274.76 -323.52 L 275.42 -316.14 L 275.80 -313.18 L 276.25 -316.14 L 276.90 -310.23 L 277.49 -313.18 L 277.76 -316.14 L 278.35 -320.57 L 279.14 -314.66 L 279.32 -322.04 L 280.04 -327.95 L 280.70 -313.18 L 280.87 -310.23 L 281.59 -326.48 L 282.25 -336.81 L 282.77 -357.49 L 282.91 -336.81 L 283.80 -335.34 L 284.39 -344.20 L 284.94 -361.92 L 285.70 -388.50 L 286.46 -364.87 L 286.94 -367.83 L 287.46 -378.16 L 287.53 -381.12 L 288.08 -373.73 L 288.57 -369.30 L 289.57 -376.69 L 290.08 -373.73 L 290.57 -357.49 L 291.12 -353.06 L 291.60 -357.49 L 292.15 -335.34 L 292.50 -341.24 L 293.15 -350.10 L 293.67 -342.72 L 294.05 -360.44 L 294.57 -353.06 L 295.29 -351.58 L 296.30 -357.49 L 296.71 -353.06 L 297.26 -351.58 L 297.71 -344.20 L 298.26 -351.58 L 298.81 -358.97 L 299.30 -344.20 L 299.82 -348.63 L 300.37 -332.38 L 300.88 -317.61 L 301.37 -341.24 L 301.89 -339.77 L 302.37 -330.91 L 302.89 -326.48 L 303.47 -329.43 L 303.99 -323.52 L 304.51 -316.14 L 304.96 -314.66 L 305.54 -313.18 L 306.06 -325.00 L 306.58 -333.86 L 306.99 -320.57 L 308.10 -325.00 L 308.58 -317.61 L 309.13 -316.14 L 309.58 -320.57 L 310.10 -319.09 L 310.58 -316.14 L 311.10 -311.71 L 311.65 -308.75 L 312.20 -308.75 L 313.17 -301.37 L 314.07 -296.94 L 314.58 -307.28 L 314.72 -308.75 L 315.21 -307.28 L 316.21 -319.09 L 316.62 -304.32 L 317.14 -323.52 L 317.28 -332.38 L 318.24 -336.81 L 318.69 -330.91 L 318.83 -338.29 L 319.80 -332.38 L 320.31 -327.95 L 320.87 -350.10 L 321.38 -327.95 L 321.87 -338.29 L 322.38 -326.48 L 322.90 -358.97 L 324.01 -372.26 L 324.45 -313.18 L 324.97 -333.86 L 325.49 -333.86 L 326.01 -338.29 L 326.39 -347.15 L 327.04 -339.77 L 327.59 -353.06 L 328.63 -341.24 L 329.15 -329.43 L 329.67 -330.91 L 330.18 -327.95 L 331.18 -353.06 L 331.70 -372.26 L 332.22 -369.30 L 332.67 -325.00 L 333.19 -338.29 L 333.67 -382.59 L 334.32 -364.87 L 334.74 -356.01 L 334.95 -356.01 L 335.98 -358.97 L 336.29 -358.97 L 336.64 -347.15 L 337.29 -354.54 L 337.88 -350.10 L 338.53 -373.73 L 338.88 -361.92 L 339.36 -378.16 L 340.09 -366.35 L 340.43 -372.26 L 340.95 -375.21 L 341.40 -357.49 L 341.92 -360.44 L 343.16 -363.40 L 343.68 -296.94 L 344.19 -341.24 L 344.47 -333.86 L 345.06 -314.66 L 345.23 -314.66 L 345.99 -271.83 L 346.89 -305.80 L 347.06 -317.61 L 347.58 -330.91 L 348.13 -330.91 L 348.58 -329.43 L 349.54 -326.48 L 350.06 -322.04 L 350.51 -336.81 L 350.65 -330.91 L 351.51 -310.23 L 352.03 -295.46 L 352.20 -322.04 L 353.13 -316.14 L 353.72 -304.32 L 354.24 -310.23 L 354.68 -364.87 L 355.20 -342.72 L 355.72 -350.10 L 356.27 -327.95 L 356.79 -316.14 L 357.82 -347.15 L 358.69 -299.89 L 359.34 -326.48 L 359.58 -333.86 L 360.10 -335.34 L 360.62 -317.61 L 361.28 -313.18 L 361.93 -348.63 L 362.31 -342.72 L 363.00 -345.67 L 363.52 -323.52 L 364.04 -316.14 L 364.48 -308.75 L 365.45 -317.61 L 366.00 -307.28 L 366.59 -320.57 L 367.00 -323.52 L 367.56 -336.81 L 368.11 -347.15 L 368.66 -326.48 L 368.83 -358.97 L 369.70 -344.20 L 370.14 -338.29 L 370.35 -342.72 L 371.01 -382.59 L 371.90 -363.40 L 372.77 -356.01 L 373.18 -369.30 L 373.94 -370.78 L 374.46 -366.35 L 374.70 -361.92 L 375.32 -338.29 L 376.01 -348.63 L 376.53 -345.67 L 376.80 -342.72 L 377.39 -354.54 L 378.05 -360.44 L 378.56 -338.29 L 378.87 -338.29 L 379.60 -338.29 L 379.91 -350.10 L 380.39 -336.81 L 380.77 -358.97 L 381.43 -363.40 L 381.95 -339.77 L 382.81 -363.40 L 383.02 -348.63 L 383.50 -356.01 L 384.22 -353.06 L 385.02 -366.35 L 385.88 -354.54 L 386.02 -353.06 L 386.60 -366.35 L 387.12 -363.40 L 387.95 -357.49 L 388.33 -307.28 L 388.61 -285.12 L 389.43 -351.58 L 389.71 -339.77 L 390.64 -325.00 L 391.16 -311.71 L 391.68 -329.43 L 391.71 -323.52 L 392.57 -313.18 L 393.20 -329.43 L 393.30 -325.00 L 393.96 -316.14 L 394.47 -314.66 L 394.99 -316.14 L 395.51 -308.75 L 396.03 -316.14 L 396.37 -316.14 L 396.89 -319.09 L 397.85 -316.14 L 398.72 -319.09 L 399.34 -314.66 L 399.93 -314.66 L 400.37 -308.75 L 400.89 -280.69 L 401.51 -313.18 L 401.96 -292.51 L 402.48 -295.46 L 402.96 -298.42 L 403.51 -298.42 L 403.86 -302.85 L 404.24 -289.55 L 404.89 -291.03 L 405.55 -327.95 L 406.27 -323.52 L 406.45 -333.86 L 407.14 -335.34 L 407.66 -322.04 L 408.10 -314.66 L 408.69 -326.48 L 409.10 -326.48 L 409.66 -323.52 L 410.17 -335.34 L 410.90 -325.00 L 411.17 -305.80 L 411.93 -327.95 L 412.45 -330.91 L 412.73 -326.48 L 413.25 -322.04 L 413.97 -327.95 L 414.63 -317.61 L 415.14 -313.18 L 415.83 -322.04 L 416.39 -288.08 L 416.83 -342.72 L 417.42 -344.20 L 418.08 -323.52 L 418.59 -379.64 L 419.11 -360.44 L 419.77 -348.63 L 420.15 -342.72 L 420.87 -345.67 L 421.39 -350.10 L 421.91 -344.20 L 421.98 -353.06 L 422.94 -325.00 L 423.46 -329.43 L 423.87 -322.04 L 424.46 -325.00 L 425.05 -308.75 L 425.57 -329.43 L 425.77 -295.46 L 426.53 -299.89 L 426.95 -302.85 L 427.64 -319.09 L 428.19 -311.71 L 428.50 -311.71 L 429.15 -304.32 L 429.36 -305.80 L 430.22 -311.71 L 430.91 -311.71 L 431.43 -305.80 L 432.23 -299.89 L 432.47 -296.94 L 433.19 -310.23 L 433.71 -310.23 L 434.23 -305.80 L 434.74 -314.66 L 435.30 -299.89 L 435.68 -301.37 L 436.06 -293.99 L 436.81 -314.66 L 437.37 -317.61 L 437.88 -325.00 L 438.40 -341.24 L 438.92 -339.77 L 439.44 -339.77 L 439.64 -344.20 L 440.44 -332.38 L 441.03 -305.80 L 441.47 -322.04 L 441.82 -320.57 L 442.72 -329.43 L 442.96 -339.77 L 443.48 -326.48 L 444.03 -316.14 L 444.48 -316.14 L 445.10 -326.48 L 445.65 -320.57 L 446.13 -292.51 L 446.65 -302.85 L 447.34 -313.18 L 447.86 -293.99 L 448.13 -293.99 L 448.65 -308.75 L 449.38 -325.00 L 449.89 -305.80 L 450.20 -304.32 L 450.93 -316.14 L 451.21 -317.61 L 451.72 -319.09 L 452.24 -323.52 L 452.76 -329.43 L 453.28 -339.77 L 454.17 -350.10 L 454.66 -316.14 L 454.83 -332.38 L 455.55 -341.24 L 456.28 -322.04 L 456.42 -319.09 L 457.31 -330.91 L 457.83 -354.54 L 458.11 -326.48 L 458.35 -320.57 L 459.38 -329.43 L 459.90 -351.58 L 459.97 -353.06 L 460.83 -350.10 L 461.94 -344.20 L 462.49 -351.58 L 462.56 -351.58 L 463.39 -336.81 L 464.04 -335.34 L 464.11 -339.77 L 465.08 -345.67 L 465.97 -339.77 L 466.67 -332.38 L 466.84 -341.24 L 467.70 -332.38 L 468.15 -326.48 L 468.67 -336.81 L 469.12 -329.43 L 469.70 -339.77 L 470.43 -339.77 L 470.94 -335.34 L 471.74 -358.97 L 472.26 -370.78 L 472.77 -319.09 L 473.29 -342.72 L 474.36 -338.29 L 474.81 -344.20 L 475.05 -344.20 L 475.84 -345.67 L 476.43 -354.54 L 476.74 -339.77 L 476.95 -342.72 L 477.88 -357.49 L 478.78 -339.77 L 479.43 -329.43 L 479.95 -327.95 L 480.54 -323.52 L 481.19 -333.86 L 481.50 -301.37 L 482.09 -316.14 L 482.75 -305.80 L 483.26 -322.04 L 483.54 -319.09 L 484.26 -308.75 L 484.58 -326.48 L 485.20 -323.52 L 485.61 -330.91 L 486.47 -333.86 L 487.20 -327.95 L 487.89 -319.09 L 488.27 -327.95 L 488.89 -339.77 L 489.58 -338.29 L 489.92 -338.29 L 490.58 -345.67 L 490.96 -366.35 L 491.48 -342.72 L 491.82 -348.63 L 492.34 -348.63 L 493.17 -338.29 L 493.27 -350.10 L 494.34 -351.58 L 494.82 -329.43 L 495.20 -326.48 L 495.86 -341.24 L 496.38 -327.95 L 496.96 -338.29 L 497.27 -329.43 L 497.96 -330.91 L 498.14 -320.57 L 498.48 -307.28 L 499.52 -332.38 L 499.97 -338.29 L 500.48 -341.24 L 501.00 -354.54 L 501.21 -348.63 L 501.73 -354.54 L 502.07 -351.58 L 503.04 -351.58 L 503.28 -347.15 L 504.14 -372.26 L 504.66 -378.16 L 505.11 -370.78 L 505.59 -375.21 L 506.18 -373.73 L 506.63 -376.69 L 507.21 -356.01 L 507.66 -370.78 L 508.25 -364.87 L 508.77 -367.83 L 509.25 -354.54 L 509.77 -373.73 L 509.94 -344.20 L 510.77 -366.35 L 511.32 -382.59 L 511.84 -372.26 L 512.22 -363.40 L 512.77 -357.49 L 513.53 -342.72 L 514.05 -344.20 L 514.70 -344.20 L 515.43 -360.44 L 515.81 -344.20 L 516.74 -326.48 L 516.91 -325.00 L 517.43 -325.00 L 518.15 -329.43 L 518.46 -325.00 L 519.33 -316.14 L 519.84 -298.42 L 520.43 -319.09 L 520.88 -320.57 L 521.40 -322.04 L 521.98 -336.81 L 522.50 -323.52 L 522.91 -330.91 L 523.50 -325.00 L 524.05 -322.04 L 524.57 -333.86 L 524.61 -336.81 L 525.50 -357.49 L 526.68 -338.29 L 527.16 -335.34 L 527.68 -338.29 L 528.19 -329.43 L 528.68 -335.34 L 529.19 -347.15 L 529.23 -342.72 L 530.26 -332.38 L 530.75 -330.91 L 531.27 -319.09 L 532.16 -320.57 L 532.89 -308.75 L 533.89 -325.00 L 534.06 -332.38 L 535.44 -326.48 L 535.82 -323.52 L 536.37 -330.91 L 536.96 -333.86 L 537.13 -335.34 L 537.89 -344.20 L 538.51 -338.29 L 538.93 -345.67 L 539.44 -339.77 L 539.96 -354.54 L 540.51 -344.20 L 540.96 -347.15 L 541.48 -332.38 L 542.07 -329.43 L 542.55 -333.86 L 542.79 -342.72 L 543.59 -369.30 L 544.31 -338.29 L 544.62 -330.91 L 545.35 -317.61 L 545.59 -357.49 L 546.38 -333.86 L 546.73 -335.34 L 547.24 -354.54 L 547.62 -367.83 L 548.21 -350.10 L 548.93 -344.20 L 549.21 -351.58 L 549.80 -338.29 L 550.31 -351.58 L 551.87 -333.86 L 552.32 -336.81 L 552.83 -330.91 L 553.35 -345.67 L 554.21 -327.95 L 554.73 -335.34 L 555.97 -327.95 L 556.97 -314.66 L 557.49 -299.89 L 558.18 -313.18 L 558.49 -339.77 L 559.56 -338.29 L 561.05 -319.09 L 561.77 -336.81 L 562.56 -338.29 L 563.08 -345.67 L 563.60 -332.38 L 563.98 -325.00 L 564.57 -326.48 L 565.15 -323.52 L 565.36 -323.52 L 566.02 -332.38 L 566.67 -319.09 L 567.19 -319.09 L 568.09 -320.57 L 568.60 -314.66 L 569.09 -288.08 L 569.81 -308.75 L 570.12 -302.85 L 570.78 -299.89 L 571.36 -327.95 L 571.74 -314.66 L 572.33 -316.14 L 572.88 -320.57 L 573.19 -323.52 L 573.57 -323.52 L 574.44 -330.91 L 575.40 -332.38 L 575.99 -339.77 L 576.13 -341.24 L 576.64 -339.77 L 577.68 -326.48 L 577.99 -323.52 L 578.54 -325.00 L 579.06 -326.48 L 579.58 -351.58 L 579.89 -348.63 L 580.54 -356.01 L 580.89 -358.97 L 581.51 -360.44 L 582.30 -347.15 L 582.58 -342.72 L 583.10 -317.61 L 583.62 -316.14 L 584.06 -341.24 L 584.65 -344.20 L 585.38 -364.87 L 585.89 -364.87 L 586.17 -366.35 L 587.07 -353.06 L 587.24 -356.01 L 587.93 -357.49 L 588.76 -357.49 L 589.48 -369.30 L 590.14 -358.97 L 590.31 -358.97 L 591.17 -366.35 L 591.76 -366.35 L 591.86 -361.92 L 592.79 -356.01 L 592.90 -356.01 L 593.38 -354.54 L 593.93 -353.06 L 594.87 -345.67 L 595.38 -348.63 L 595.90 -363.40 L 596.45 -348.63 L 596.97 -342.72 L 597.83 -344.20 L 598.49 -339.77 L 599.01 -344.20 L 599.59 -341.24 L 600.25 -333.86 L 600.90 -327.95 L 601.59 -327.95 L 601.80 -327.95 L 602.32 -325.00 L 603.11 -326.48 L 603.18 -326.48 L 603.84 -326.48 L 604.60 -330.91 L 605.11 -323.52 L 605.74 -323.52 L 606.43 -325.00 L 607.22 -322.04 L 608.25 -335.34 L 608.91 -330.91 L 609.26 -327.95 L 609.81 -350.10 L 610.29 -335.34 L 610.81 -345.67 L 611.39 -329.43 L 612.05 -336.81 L 612.91 -338.29 L 613.60 -262.97 L 613.84 -351.58 L 614.64 -307.28 L 615.40 -353.06 L 615.81 -344.20 L 616.67 -344.20 L 617.50 -342.72 L 617.99 -336.81 L 618.50 -330.91 L 619.02 -344.20 L 620.57 -341.24 L 621.13 -335.34 L 621.57 -338.29 L 622.16 -341.24 L 622.61 -342.72 L 623.13 -348.63 L 623.85 -345.67 L 624.37 -373.73 L 624.89 -364.87 L 625.41 -361.92 L 625.92 -363.40 L 627.51 -361.92 L 627.75 -364.87 L 628.48 -353.06 L 629.51 -366.35 L 630.17 -356.01 L 630.31 -363.40 L 631.72 -350.10 L 632.07 -356.01 L 633.41 -344.20 L 633.89 -348.63 L 634.79 -341.24 L 636.93 -326.48 L 637.45 -336.81 L 637.97 -333.86 L 638.48 -314.66 L 639.00 -325.00 L 639.52 -325.00 L 639.93 -333.86 L 640.80 -317.61 L 641.62 -296.94 L 641.66 -295.46 L 642.66 -308.75 L 643.66 -311.71 L 644.21 -317.61 L 644.66 -316.14 L 645.70 -322.04 L 646.28 -326.48 L 647.11 -327.95 L 647.63 -304.32 L 648.32 -322.04 L 648.80 -288.08 L 649.29 -308.75 L 649.80 -307.28" fill="none" stroke="rgb(255,0,0)" stroke-width="2"/>
</g>
<path d="M 0.00 -245.25 L 649.80 -245.25" fill="none" stroke="rgb(51,51,51)" stroke-width="1.4173225"/>
<path d="M 117.48 -245.25 L 117.48 -253.25" fill="none" stroke="rgb(51,51,51)" stroke-width="2.5"/>
<g transform="translate(117.47764519809347,-239.25) rotate(0.000)">
<text x="0.00" y="15.40" font-family="Arial,Helvetica,sans-serif" font-size="15.400000000000002" text-anchor="middle" stroke="none" fill="rgb(0,0,0)">2023 </text>
</g>
<path d="M 307.63 -245.25 L 307.63 -253.25" fill="none" stroke="rgb(51,51,51)" stroke-width="2.5"/>
<g transform="translate(307.6299409763651,-239.25) rotate(0.000)">
<text x="0.00" y="15.40" font-family="Arial,Helvetica,sans-serif" font-size="15.400000000000002" text-anchor="middle" stroke="none" fill="rgb(0,0,0)">2024 </text>
</g>
<path d="M 498.30 -245.25 L 498.30 -253.25" fill="none" stroke="rgb(51,51,51)" stroke-width="2.5"/>
<g transform="translate(498.30320194854977,-239.25) rotate(0.000)">
<text x="0.00" y="15.40" font-family="Arial,Helvetica,sans-serif" font-size="15.400000000000002" text-anchor="middle" stroke="none" fill="rgb(0,0,0)">2025 </text>
</g>
<path d="M 21.62 -245.25 L 21.62 -249.25" fill="none" stroke="rgb(51,51,51)" stroke-width="2.5"/>
<path d="M 53.92 -245.25 L 53.92 -249.25" fill="none" stroke="rgb(51,51,51)" stroke-width="2.5"/>
<path d="M 85.70 -245.25 L 85.70 -249.25" fill="none" stroke="rgb(51,51,51)" stroke-width="2.5"/>
<path d="M 117.48 -245.25 L 117.48 -249.25" fill="none" stroke="rgb(51,51,51)" stroke-width="2.5"/>
<path d="M 148.21 -245.25 L 148.21 -249.25" fill="none" stroke="rgb(51,51,51)" stroke-width="2.5"/>
<path d="M 179.99 -245.25 L 179.99 -249.25" fill="none" stroke="rgb(51,51,51)" stroke-width="2.5"/>
<path d="M 211.77 -245.25 L 211.77 -249.25" fill="none" stroke="rgb(51,51,51)" stroke-width="2.5"/>
<path d="M 244.07 -245.25 L 244.07 -249.25" fill="none" stroke="rgb(51,51,51)" stroke-width="2.5"/>
<path d="M 275.85 -245.25 L 275.85 -249.25" fill="none" stroke="rgb(51,51,51)" stroke-width="2.5"/>
<path d="M 307.63 -245.25 L 307.63 -249.25" fill="none" stroke="rgb(51,51,51)" stroke-width="2.5"/>
<path d="M 338.89 -245.25 L 338.89 -249.25" fill="none" stroke="rgb(51,51,51)" stroke-width="2.5"/>
<path d="M 370.67 -245.25 L 370.67 -249.25" fill="none" stroke="rgb(51,51,51)" stroke-width="2.5"/>
<path d="M 402.45 -245.25 L 402.45 -249.25" fill="none" stroke="rgb(51,51,51)" stroke-width="2.5"/>
<path d="M 434.75 -245.25 L 434.75 -249.25" fill="none" stroke="rgb(51,51,51)" stroke-width="2.5"/>
<path d="M 466.52 -245.25 L 466.52 -249.25" fill="none" stroke="rgb(51,51,51)" stroke-width="2.5"/>
<path d="M 498.30 -245.25 L 498.30 -249.25" fill="none" stroke="rgb(51,51,51)" stroke-width="2.5"/>
<path d="M 529.04 -245.25 L 529.04 -249.25" fill="none" stroke="rgb(51,51,51)" stroke-width="2.5"/>
<path d="M 560.82 -245.25 L 560.82 -249.25" fill="none" stroke="rgb(51,51,51)" stroke-width="2.5"/>
<path d="M 592.60 -245.25 L 592.60 -249.25" fill="none" stroke="rgb(51,51,51)" stroke-width="2.5"/>
<path d="M 624.90 -245.25 L 624.90 -249.25" fill="none" stroke="rgb(51,51,51)" stroke-width="2.5"/>
<path d="M 0.00 -407.70 L 649.80 -407.70" fill="none" stroke="rgb(51,51,51)" stroke-width="1.4173225"/>
<path d="M 117.48 -407.70 L 117.48 -399.70" fill="none" stroke="rgb(51,51,51)" stroke-width="2.5"/>
<path d="M 307.63 -407.70 L 307.63 -399.70" fill="none" stroke="rgb(51,51,51)" stroke-width="2.5"/>
<path d="M 498.30 -407.70 L 498.30 -399.70" fill="none" stroke="rgb(51,51,51)" stroke-width="2.5"/>
<path d="M 21.62 -407.70 L 21.62 -403.70" fill="none" stroke="rgb(51,51,51)" stroke-width="2.5"/>
<path d="M 53.92 -407.70 L 53.92 -403.70" fill="none" stroke="rgb(51,51,51)" stroke-width="2.5"/>
<path d="M 85.70 -407.70 L 85.70 -403.70" fill="none" stroke="rgb(51,51,51)" stroke-width="2.5"/>
<path d="M 117.48 -407.70 L 117.48 -403.70" fill="none" stroke="rgb(51,51,51)" stroke-width="2.5"/>
<path d="M 148.21 -407.70 L 148.21 -403.70" fill="none" stroke="rgb(51,51,51)" stroke-width="2.5"/>
<path d="M 179.99 -407.70 L 179.99 -403.70" fill="none" stroke="rgb(51,51,51)" stroke-width="2.5"/>
<path d="M 211.77 -407.70 L 211.77 -403.70" fill="none" stroke="rgb(51,51,51)" stroke-width="2.5"/>
<path d="M 244.07 -407.70 L 244.07 -403.70" fill="none" stroke="rgb(51,51,51)" stroke-width="2.5"/>
<path d="M 275.85 -407.70 L 275.85 -403.70" fill="none" stroke="rgb(51,51,51)" stroke-width="2.5"/>
<path d="M 307.63 -407.70 L 307.63 -403.70" fill="none" stroke="rgb(51,51,51)" stroke-width="2.5"/>
<path d="M 338.89 -407.70 L 338.89 -403.70" fill="none" stroke="rgb(51,51,51)" stroke-width="2.5"/>
<path d="M 370.67 -407.70 L 370.67 -403.70" fill="none" stroke="rgb(51,51,51)" stroke-width="2.5"/>
<path d="M 402.45 -407.70 L 402.45 -403.70" fill="none" stroke="rgb(51,51,51)" stroke-width="2.5"/>
<path d="M 434.75 -407.70 L 434.75 -403.70" fill="none" stroke="rgb(51,51,51)" stroke-width="2.5"/>
<path d="M 466.52 -407.70 L 466.52 -403.70" fill="none" stroke="rgb(51,51,51)" stroke-width="2.5"/>
<path d="M 498.30 -407.70 L 498.30 -403.70" fill="none" stroke="rgb(51,51,51)" stroke-width="2.5"/>
<path d="M 529.04 -407.70 L 529.04 -403.70" fill="none" stroke="rgb(51,51,51)" stroke-width="2.5"/>
<path d="M 560.82 -407.70 L 560.82 -403.70" fill="none" stroke="rgb(51,51,51)" stroke-width="2.5"/>
<path d="M 592.60 -407.70 L 592.60 -403.70" fill="none" stroke="rgb(51,51,51)" stroke-width="2.5"/>
<path d="M 624.90 -407.70 L 624.90 -403.70" fill="none" stroke="rgb(51,51,51)" stroke-width="2.5"/>
<path d="M 0.00 -245.25 L 0.00 -407.70" fill="none" stroke="rgb(51,51,51)" stroke-width="1.4173225"/>
<path d="M 0.00 -260.02 L 8.00 -260.02" fill="none" stroke="rgb(51,51,51)" stroke-width="2.5"/>
<g transform="translate(-6,-260.0182528409759) rotate(0.000)">
<text x="0.00" y="7.70" font-family="Arial,Helvetica,sans-serif" font-size="15.400000000000002" text-anchor="end" stroke="none" fill="rgb(0,0,0)">53.212</text>
</g>
<path d="M 0.00 -319.09 L 8.00 -319.09" fill="none" stroke="rgb(51,51,51)" stroke-width="2.5"/>
<g transform="translate(-6,-319.09126420456454) rotate(0.000)">
<text x="0.00" y="7.70" font-family="Arial,Helvetica,sans-serif" font-size="15.400000000000002" text-anchor="end" stroke="none" fill="rgb(0,0,0)">53.216</text>
</g>
<path d="M 0.00 -378.16 L 8.00 -378.16" fill="none" stroke="rgb(51,51,51)" stroke-width="2.5"/>
<g transform="translate(-6,-378.1642755682581) rotate(0.000)">
<text x="0.00" y="7.70" font-family="Arial,Helvetica,sans-serif" font-size="15.400000000000002" text-anchor="end" stroke="none" fill="rgb(0,0,0)">53.22</text>
</g>
<path d="M 0.00 -260.02 L 4.00 -260.02" fill="none" stroke="rgb(51,51,51)" stroke-width="2.5"/>
<path d="M 0.00 -289.55 L 4.00 -289.55" fill="none" stroke="rgb(51,51,51)" stroke-width="2.5"/>
<path d="M 0.00 -319.09 L 4.00 -319.09" fill="none" stroke="rgb(51,51,51)" stroke-width="2.5"/>
<path d="M 0.00 -348.63 L 4.00 -348.63" fill="none" stroke="rgb(51,51,51)" stroke-width="2.5"/>
<path d="M 0.00 -378.16 L 4.00 -378.16" fill="none" stroke="rgb(51,51,51)" stroke-width="2.5"/>
<g transform="translate(-79.87890625,-326.475390625) rotate(-90.000)">
<text x="0.00" y="16.80" font-family="Arial,Helvetica,sans-serif" font-size="16.8" text-anchor="middle" stroke="none" fill="rgb(0,0,0)">Inclination (°)</text>
</g>
<path d="M 649.80 -245.25 L 649.80 -407.70" fill="none" stroke="rgb(51,51,51)" stroke-width="1.4173225"/>
<path d="M 649.80 -260.02 L 641.80 -260.02" fill="none" stroke="rgb(51,51,51)" stroke-width="2.5"/>
<path d="M 649.80 -319.09 L 641.80 -319.09" fill="none" stroke="rgb(51,51,51)" stroke-width="2.5"/>
<path d="M 649.80 -378.16 L 641.80 -378.16" fill="none" stroke="rgb(51,51,51)" stroke-width="2.5"/>
<path d="M 649.80 -260.02 L 645.80 -260.02" fill="none" stroke="rgb(51,51,51)" stroke-width="2.5"/>
<path d="M 649.80 -289.55 L 645.80 -289.55" fill="none" stroke="rgb(51,51,51)" stroke-width="2.5"/>
<path d="M 649.80 -319.09 L 645.80 -319.09" fill="none" stroke="rgb(51,51,51)" stroke-width="2.5"/>
<path d="M 649.80 -348.63 L 645.80 -348.63" fill="none" stroke="rgb(51,51,51)" stroke-width="2.5"/>
<path d="M 649.80 -378.16 L 645.80 -378.16" fill="none" stroke="rgb(51,51,51)" stroke-width="2.5"/>
<path d="M 120.97 -490.50 L 120.97 -657.78" fill="none" stroke="rgb(204,204,204)" stroke-width="0.8"/>
<path d="M 316.78 -490.50 L 316.78 -657.78" fill="none" stroke="rgb(204,204,204)" stroke-width="0.8"/>
<path d="M 513.12 -490.50 L 513.12 -657.78" fill="none" stroke="rgb(204,204,204)" stroke-width="0.8"/>
<path d="M 22.26 -490.50 L 22.26 -657.78" fill="none" stroke="rgb(204,204,204)" stroke-width="0.5"/>
<path d="M 55.52 -490.50 L 55.52 -657.78" fill="none" stroke="rgb(204,204,204)" stroke-width="0.5"/>
<path d="M 88.25 -490.50 L 88.25 -657.78" fill="none" stroke="rgb(204,204,204)" stroke-width="0.5"/>
<path d="M 120.97 -490.50 L 120.97 -657.78" fill="none" stroke="rgb(204,204,204)" stroke-width="0.5"/>
<path d="M 152.62 -490.50 L 152.62 -657.78" fill="none" stroke="rgb(204,204,204)" stroke-width="0.5"/>
<path d="M 185.35 -490.50 L 185.35 -657.78" fill="none" stroke="rgb(204,204,204)" stroke-width="0.5"/>
<path d="M 218.07 -490.50 L 218.07 -657.78" fill="none" stroke="rgb(204,204,204)" stroke-width="0.5"/>
<path d="M 251.33 -490.50 L 251.33 -657.78" fill="none" stroke="rgb(204,204,204)" stroke-width="0.5"/>
<path d="M 284.05 -490.50 L 284.05 -657.78" fill="none" stroke="rgb(204,204,204)" stroke-width="0.5"/>
<path d="M 316.78 -490.50 L 316.78 -657.78" fill="none" stroke="rgb(204,204,204)" stroke-width="0.5"/>
<path d="M 348.97 -490.50 L 348.97 -657.78" fill="none" stroke="rgb(204,204,204)" stroke-width="0.5"/>
<path d="M 381.69 -490.50 L 381.69 -657.78" fill="none" stroke="rgb(204,204,204)" stroke-width="0.5"/>
<path d="M 414.41 -490.50 L 414.41 -657.78" fill="none" stroke="rgb(204,204,204)" stroke-width="0.5"/>
<path d="M 447.67 -490.50 L 447.67 -657.78" fill="none" stroke="rgb(204,204,204)" stroke-width="0.5"/>
<path d="M 480.40 -490.50 L 480.40 -657.78" fill="none" stroke="rgb(204,204,204)" stroke-width="0.5"/>
<path d="M 513.12 -490.50 L 513.12 -657.78" fill="none" stroke="rgb(204,204,204)" stroke-width="0.5"/>
<path d="M 544.77 -490.50 L 544.77 -657.78" fill="none" stroke="rgb(204,204,204)" stroke-width="0.5"/>
<path d="M 577.50 -490.50 L 577.50 -657.78" fill="none" stroke="rgb(204,204,204)" stroke-width="0.5"/>
<path d="M 610.22 -490.50 L 610.22 -657.78" fill="none" stroke="rgb(204,204,204)" stroke-width="0.5"/>
<path d="M 643.48 -490.50 L 643.48 -657.78" fill="none" stroke="rgb(204,204,204)" stroke-width="0.5"/>
<path d="M 0.00 -541.41 L 669.13 -541.41" fill="none" stroke="rgb(204,204,204)" stroke-width="0.8"/>
<path d="M 0.00 -614.14 L 669.13 -614.14" fill="none" stroke="rgb(204,204,204)" stroke-width="0.8"/>
<path d="M 0.00 -505.05 L 669.13 -505.05" fill="none" stroke="rgb(204,204,204)" stroke-width="0.5"/>
<path d="M 0.00 -541.41 L 669.13 -541.41" fill="none" stroke="rgb(204,204,204)" stroke-width="0.5"/>
<path d="M 0.00 -577.78 L 669.13 -577.78" fill="none" stroke="rgb(204,204,204)" stroke-width="0.5"/>
<path d="M 0.00 -614.14 L 669.13 -614.14" fill="none" stroke="rgb(204,204,204)" stroke-width="0.5"/>
<path d="M 0.00 -650.51 L 669.13 -650.51" fill="none" stroke="rgb(204,204,204)" stroke-width="0.5"/>
<g clip-path="url(#clip2)">
<path d="M 0.00 -495.17 L 0.67 -499.88 L 1.21 -503.78 L 2.06 -510.05 L 2.59 -510.12 L 2.79 -510.01 L 3.36 -509.99 L 4.20 -510.04 L 4.74 -510.15 L 5.10 -510.29 L 5.81 -510.15 L 6.36 -510.05 L 6.53 -509.97 L 7.42 -509.99 L 7.69 -509.86 L 7.97 -509.88 L 9.03 -510.09 L 9.39 -510.01 L 10.10 -510.02 L 10.46 -510.13 L 11.18 -509.88 L 11.53 -510.11 L 12.07 -510.01 L 12.47 -509.96 L 13.01 -509.94 L 13.55 -510.14 L 14.08 -510.00 L 14.17 -509.98 L 16.54 -510.04 L 17.08 -509.95 L 17.61 -510.05 L 18.15 -510.06 L 18.69 -510.00 L 19.04 -510.09 L 19.76 -509.95 L 20.30 -510.06 L 20.65 -510.01 L 21.06 -510.17 L 21.73 -509.93 L 22.26 -510.01 L 22.98 -513.88 L 23.34 -517.04 L 23.74 -520.60 L 24.41 -526.54 L 25.12 -532.90 L 25.48 -536.10 L 26.18 -540.55 L 26.73 -547.30 L 26.91 -548.91 L 27.81 -547.78 L 28.03 -548.51 L 28.88 -555.90 L 29.24 -559.13 L 29.95 -565.60 L 30.31 -568.84 L 31.03 -575.34 L 31.38 -578.60 L 32.10 -585.13 L 32.63 -590.05 L 32.99 -593.34 L 33.71 -599.92 L 33.93 -601.98 L 34.78 -609.84 L 35.14 -613.15 L 35.85 -619.80 L 36.21 -623.13 L 36.61 -626.89 L 37.46 -634.84 L 38.00 -639.88 L 38.36 -643.24 L 39.07 -650.24 L 39.43 -651.86 L 39.97 -651.84 L 40.68 -651.86 L 41.22 -651.88 L 41.58 -651.85 L 42.29 -651.86 L 42.81 -651.85 L 43.36 -651.88 L 43.59 -651.95 L 44.12 -651.95 L 44.97 -651.81 L 45.20 -651.83 L 46.05 -651.85 L 46.40 -651.86 L 46.94 -651.93 L 47.48 -651.92 L 47.74 -651.84 L 48.42 -651.82 L 49.09 -651.99 L 49.62 -651.97 L 50.02 -651.86 L 50.87 -651.84 L 51.10 -651.82 L 51.95 -651.86 L 52.17 -651.84 L 52.71 -651.90 L 53.56 -651.88 L 54.09 -651.92 L 54.32 -651.91 L 54.85 -651.96 L 55.52 -651.88 L 56.24 -651.93 L 56.60 -651.84 L 57.31 -651.15 L 57.67 -648.26 L 58.38 -648.27 L 58.61 -648.31 L 59.14 -648.29 L 59.82 -648.17 L 60.35 -648.21 L 61.07 -648.23 L 61.42 -648.24 L 61.96 -648.24 L 62.68 -648.31 L 63.03 -648.25 L 63.58 -648.24 L 63.90 -648.26 L 64.46 -648.24 L 65.17 -648.23 L 65.67 -648.23 L 66.24 -648.23 L 66.67 -648.26 L 67.27 -648.23 L 67.80 -648.24 L 68.34 -648.24 L 68.76 -648.23 L 69.30 -648.26 L 69.83 -648.20 L 70.36 -648.22 L 71.25 -648.24 L 71.71 -648.23 L 72.28 -648.26 L 72.53 -648.24 L 73.35 -648.23 L 73.60 -648.20 L 74.13 -648.38 L 74.73 -648.28 L 75.20 -648.20 L 75.69 -648.19 L 76.26 -648.20 L 76.69 -648.23 L 77.61 -648.12 L 77.82 -648.23 L 78.43 -648.24 L 79.28 -648.24 L 79.81 -648.28 L 80.17 -648.27 L 80.53 -648.24 L 81.24 -648.25 L 81.52 -648.23 L 82.12 -648.22 L 82.98 -648.23 L 83.51 -648.23 L 84.08 -648.26 L 84.47 -648.30 L 84.75 -648.27 L 85.75 -648.18 L 86.21 -648.20 L 86.28 -648.21 L 86.89 -648.22 L 87.88 -648.30 L 88.17 -648.28 L 88.91 -648.23 L 89.30 -648.24 L 89.98 -648.17 L 90.05 -648.18 L 91.04 -648.25 L 91.58 -648.26 L 92.11 -648.19 L 93.00 -648.33 L 93.74 -648.28 L 94.06 -648.22 L 94.81 -648.19 L 95.31 -648.24 L 95.91 -648.24 L 96.37 -648.24 L 96.76 -648.22 L 97.44 -648.23 L 97.97 -648.24 L 98.29 -648.23 L 98.97 -648.24 L 99.57 -648.23 L 100.00 -648.25 L 100.60 -648.26 L 101.06 -648.24 L 101.63 -648.23 L 102.20 -648.22 L 102.56 -648.25 L 103.27 -648.21 L 103.80 -648.27 L 104.48 -648.23 L 104.83 -648.25 L 105.54 -648.23 L 105.86 -648.24 L 106.43 -648.24 L 106.82 -648.24 L 107.50 -648.25 L 107.78 -648.25 L 108.56 -648.23 L 109.10 -648.29 L 109.59 -648.26 L 110.06 -648.27 L 110.66 -648.25 L 111.19 -648.22 L 111.65 -648.23 L 112.22 -648.21 L 112.76 -648.24 L 113.47 -648.25 L 113.79 -648.25 L 114.53 -648.21 L 115.21 -648.25 L 116.27 -648.25 L 116.49 -648.26 L 117.16 -648.17 L 117.70 -648.25 L 118.51 -648.21 L 118.97 -648.21 L 119.44 -648.26 L 120.11 -648.22 L 120.50 -648.22 L 121.14 -648.27 L 121.71 -648.29 L 121.75 -648.26 L 122.74 -648.22 L 123.27 -648.23 L 124.34 -648.26 L 124.87 -648.19 L 125.09 -648.20 L 125.76 -648.23 L 126.51 -648.22 L 126.83 -648.24 L 127.33 -648.27 L 128.11 -648.15 L 128.25 -648.20 L 129.10 -648.19 L 129.49 -648.22 L 130.17 -648.25 L 130.59 -648.17 L 131.06 -648.22 L 131.66 -648.22 L 132.30 -648.14 L 132.87 -648.20 L 133.30 -648.29 L 133.37 -648.27 L 134.43 -648.21 L 134.89 -648.20 L 135.43 -648.22 L 135.96 -648.24 L 136.53 -648.22 L 137.06 -648.17 L 137.59 -648.24 L 138.66 -648.22 L 139.19 -648.23 L 139.73 -648.20 L 140.26 -648.23 L 140.79 -648.18 L 141.22 -648.21 L 141.86 -648.22 L 142.29 -648.23 L 142.82 -648.23 L 143.35 -648.22 L 143.96 -648.21 L 144.81 -648.23 L 145.59 -648.25 L 146.23 -648.25 L 146.90 -648.24 L 147.58 -648.23 L 148.11 -648.23 L 149.04 -648.25 L 149.25 -648.23 L 150.14 -648.26 L 150.67 -648.25 L 150.99 -648.23 L 151.52 -648.22 L 152.31 -648.25 L 152.56 -648.30 L 153.09 -648.25 L 153.83 -648.15 L 154.37 -648.23 L 154.69 -648.25 L 155.47 -648.20 L 155.97 -648.25 L 156.50 -648.23 L 157.60 -648.21 L 158.13 -648.30 L 158.21 -648.27 L 158.67 -648.25 L 159.73 -648.24 L 160.27 -648.18 L 160.83 -648.23 L 161.40 -648.26 L 161.55 -648.24 L 162.08 -648.23 L 162.97 -648.24 L 163.50 -648.21 L 163.96 -648.23 L 164.07 -648.21 L 164.96 -648.21 L 165.49 -648.25 L 166.06 -648.24 L 166.45 -648.24 L 167.20 -648.21 L 167.37 -648.22 L 168.19 -648.24 L 168.79 -648.19 L 169.26 -648.23 L 169.86 -648.21 L 170.32 -648.25 L 170.82 -648.22 L 171.35 -648.23 L 171.96 -648.21 L 172.28 -648.25 L 172.95 -648.22 L 173.34 -648.24 L 174.05 -648.24 L 174.09 -648.23 L 174.62 -648.21 L 175.12 -648.24 L 175.58 -648.26 L 176.72 -648.19 L 177.25 -648.23 L 177.75 -648.21 L 178.21 -648.24 L 178.67 -648.24 L 179.28 -648.23 L 179.81 -648.24 L 180.45 -648.19 L 180.77 -648.23 L 181.45 -648.23 L 182.16 -648.32 L 182.94 -648.22 L 183.90 -648.23 L 184.43 -648.23 L 184.96 -648.24 L 185.50 -648.26 L 185.67 -648.23 L 186.38 -648.23 L 186.74 -648.24 L 187.45 -648.23 L 187.73 -648.23 L 188.45 -648.21 L 188.80 -648.25 L 189.33 -648.22 L 189.83 -648.23 L 190.40 -648.24 L 191.15 -648.23 L 191.68 -648.23 L 192.50 -648.28 L 193.03 -648.24 L 194.06 -648.23 L 194.63 -648.24 L 194.98 -648.24 L 195.66 -648.24 L 195.91 -648.22 L 196.58 -648.26 L 197.22 -648.24 L 197.47 -648.24 L 197.79 -648.25 L 198.86 -648.25 L 199.60 -648.24 L 200.24 -648.23 L 200.81 -648.25 L 201.42 -648.24 L 201.70 -648.24 L 202.48 -648.25 L 203.12 -648.24 L 204.19 -648.24 L 204.37 -648.24 L 205.08 -648.25 L 205.72 -648.25 L 206.18 -648.24 L 206.64 -648.27 L 207.28 -648.22 L 207.67 -648.28 L 208.06 -648.24 L 208.74 -648.25 L 209.41 -648.24 L 209.98 -648.23 L 210.51 -648.22 L 210.87 -648.28 L 211.44 -648.23 L 212.11 -648.24 L 212.54 -648.23 L 213.18 -648.21 L 213.57 -648.24 L 214.24 -648.22 L 214.78 -648.23 L 214.92 -648.23 L 215.99 -648.24 L 216.87 -648.22 L 217.34 -648.24 L 218.08 -648.25 L 218.40 -648.24 L 219.29 -648.26 L 219.57 -648.23 L 220.04 -648.23 L 220.75 -648.22 L 221.03 -648.24 L 221.95 -648.26 L 222.56 -648.28 L 223.06 -648.24 L 223.38 -648.22 L 223.80 -648.22 L 224.26 -648.22 L 224.73 -648.25 L 225.69 -648.24 L 226.75 -648.23 L 227.32 -648.21 L 227.85 -648.28 L 227.96 -648.26 L 228.49 -648.23 L 229.06 -648.22 L 230.41 -648.24 L 231.05 -648.24 L 232.12 -648.22 L 232.62 -648.25 L 233.18 -648.23 L 234.11 -648.24 L 234.64 -648.24 L 235.35 -648.24 L 236.06 -648.25 L 236.81 -648.22 L 237.34 -648.25 L 238.05 -648.24 L 239.01 -648.24 L 239.58 -648.24 L 240.29 -648.25 L 241.11 -648.22 L 241.75 -648.23 L 242.17 -648.23 L 243.24 -648.22 L 243.77 -648.24 L 244.88 -648.24 L 245.41 -648.19 L 245.87 -648.23 L 246.40 -648.23 L 247.50 -648.23 L 247.97 -648.24 L 248.61 -648.23 L 249.03 -648.23 L 249.64 -648.23 L 250.06 -648.24 L 251.38 -648.31 L 251.77 -648.27 L 252.34 -648.27 L 252.98 -648.24 L 253.37 -648.25 L 253.79 -648.23 L 254.19 -648.24 L 254.93 -648.23 L 255.46 -648.22 L 255.93 -648.23 L 256.67 -648.24 L 257.21 -648.25 L 257.60 -648.21 L 258.13 -648.18 L 258.77 -648.26 L 259.30 -648.22 L 259.59 -648.23 L 260.51 -648.25 L 260.90 -648.22 L 261.65 -648.28 L 261.83 -648.28 L 262.75 -648.21 L 263.00 -648.25 L 263.82 -648.27 L 264.31 -648.22 L 264.88 -648.27 L 265.41 -648.20 L 265.95 -648.25 L 266.02 -648.24 L 266.59 -648.22 L 267.40 -648.23 L 268.12 -648.25 L 268.61 -648.23 L 268.97 -648.23 L 269.50 -648.24 L 270.18 -648.22 L 270.57 -648.23 L 271.31 -648.23 L 272.31 -648.24 L 272.77 -648.24 L 273.34 -648.23 L 273.59 -648.24 L 274.40 -648.20 L 274.90 -648.26 L 275.44 -648.23 L 275.83 -648.22 L 276.50 -648.25 L 277.07 -648.21 L 277.43 -648.22 L 278.10 -648.25 L 278.63 -648.16 L 279.17 -648.19 L 279.73 -648.28 L 279.91 -648.26 L 280.80 -648.21 L 281.51 -648.22 L 281.80 -648.23 L 282.33 -648.24 L 282.93 -648.15 L 283.61 -648.27 L 284.00 -648.24 L 284.46 -648.25 L 285.14 -648.25 L 285.74 -648.24 L 286.02 -648.24 L 286.63 -648.16 L 287.45 -648.25 L 287.62 -648.29 L 288.37 -648.22 L 289.05 -648.21 L 289.22 -648.22 L 289.97 -648.24 L 290.64 -648.23 L 291.18 -648.26 L 291.32 -648.24 L 292.24 -648.24 L 292.85 -648.24 L 293.42 -648.24 L 294.20 -648.23 L 294.98 -648.24 L 295.48 -648.26 L 296.01 -648.24 L 296.08 -648.23 L 296.65 -648.24 L 297.15 -648.19 L 298.18 -648.20 L 298.71 -648.21 L 299.21 -648.25 L 299.78 -648.23 L 300.27 -648.24 L 300.84 -648.15 L 301.20 -648.30 L 301.87 -648.26 L 302.41 -648.25 L 302.80 -648.21 L 303.33 -648.22 L 304.08 -648.24 L 305.11 -648.25 L 305.53 -648.23 L 306.10 -648.23 L 306.56 -648.24 L 307.13 -648.24 L 307.70 -648.23 L 308.20 -648.26 L 308.73 -648.23 L 309.30 -648.20 L 309.83 -648.23 L 310.33 -648.25 L 310.86 -648.20 L 311.36 -648.21 L 311.89 -648.25 L 312.50 -648.25 L 313.03 -648.21 L 313.56 -648.22 L 314.03 -648.23 L 314.63 -648.21 L 315.16 -648.23 L 315.70 -648.24 L 316.12 -648.24 L 317.26 -648.31 L 317.76 -648.23 L 318.33 -648.22 L 318.79 -648.17 L 319.32 -648.25 L 319.82 -648.23 L 320.35 -648.27 L 320.92 -648.24 L 321.49 -648.24 L 322.48 -648.23 L 323.41 -648.24 L 323.94 -648.24 L 324.08 -648.24 L 324.58 -648.25 L 325.61 -648.25 L 326.04 -648.24 L 326.57 -648.24 L 326.71 -648.44 L 327.71 -648.24 L 328.17 -648.26 L 328.31 -648.25 L 329.31 -648.25 L 329.84 -648.19 L 330.41 -648.26 L 330.94 -648.25 L 331.44 -648.26 L 331.97 -648.23 L 332.50 -648.25 L 333.64 -648.21 L 334.10 -648.26 L 334.64 -648.21 L 335.17 -648.25 L 335.70 -648.22 L 336.09 -648.25 L 336.77 -648.24 L 337.34 -648.25 L 338.40 -648.24 L 338.94 -648.21 L 339.47 -648.23 L 340.00 -648.23 L 341.03 -648.24 L 341.57 -648.24 L 342.10 -648.23 L 342.56 -648.24 L 343.09 -648.20 L 343.59 -648.26 L 344.27 -648.19 L 344.69 -648.24 L 344.91 -648.22 L 345.97 -648.23 L 346.29 -648.22 L 346.65 -648.23 L 347.32 -648.24 L 347.93 -648.24 L 348.60 -648.24 L 348.96 -648.22 L 349.45 -648.24 L 350.20 -648.23 L 350.56 -648.20 L 351.09 -648.21 L 351.55 -648.24 L 352.08 -648.23 L 353.36 -648.22 L 353.90 -648.25 L 354.43 -648.19 L 354.71 -648.24 L 355.32 -648.24 L 355.50 -648.24 L 356.28 -648.24 L 357.20 -648.25 L 357.38 -648.25 L 357.91 -648.24 L 358.48 -648.24 L 358.94 -648.22 L 359.94 -648.23 L 360.47 -648.23 L 360.93 -648.25 L 361.07 -648.23 L 361.96 -648.25 L 362.50 -648.26 L 362.67 -648.25 L 363.63 -648.22 L 364.24 -648.35 L 364.77 -648.18 L 365.23 -648.24 L 365.77 -648.24 L 366.30 -648.22 L 366.87 -648.24 L 367.40 -648.23 L 368.47 -648.24 L 369.35 -648.24 L 370.03 -648.24 L 370.28 -648.23 L 370.81 -648.23 L 371.34 -648.25 L 372.02 -648.26 L 372.69 -648.23 L 373.09 -648.24 L 373.80 -648.23 L 374.33 -648.21 L 374.86 -648.26 L 375.32 -648.23 L 376.32 -648.27 L 376.89 -648.25 L 377.49 -648.18 L 377.92 -648.22 L 378.49 -648.24 L 379.06 -648.22 L 379.62 -648.21 L 379.80 -648.24 L 380.69 -648.23 L 381.15 -648.25 L 381.37 -648.24 L 382.04 -648.24 L 382.96 -648.25 L 383.85 -648.20 L 384.28 -648.24 L 385.06 -648.23 L 385.59 -648.24 L 385.84 -648.24 L 386.48 -648.22 L 387.19 -648.07 L 387.73 -648.32 L 388.01 -648.34 L 388.61 -648.27 L 389.29 -648.25 L 389.82 -648.21 L 390.14 -648.22 L 390.89 -648.24 L 391.21 -648.28 L 391.71 -648.24 L 392.10 -648.23 L 392.77 -648.22 L 393.31 -648.24 L 394.19 -648.26 L 394.41 -648.22 L 394.90 -648.23 L 395.65 -648.23 L 396.47 -648.23 L 397.36 -648.25 L 397.50 -648.22 L 398.10 -648.24 L 398.64 -648.24 L 399.49 -648.29 L 399.88 -648.23 L 400.16 -648.25 L 401.02 -648.25 L 401.30 -648.23 L 402.26 -648.22 L 402.79 -648.27 L 403.33 -648.24 L 403.36 -648.23 L 404.25 -648.25 L 404.89 -648.24 L 405.00 -648.23 L 405.67 -648.23 L 406.20 -648.25 L 406.74 -648.24 L 407.27 -648.24 L 407.80 -648.24 L 408.16 -648.23 L 408.69 -648.24 L 409.69 -648.25 L 410.58 -648.25 L 411.21 -648.24 L 411.82 -648.23 L 412.28 -648.27 L 412.81 -648.24 L 413.45 -648.15 L 413.92 -648.25 L 414.45 -648.24 L 414.95 -648.25 L 415.51 -648.24 L 415.87 -648.24 L 416.26 -648.24 L 416.94 -648.24 L 417.61 -648.24 L 418.36 -648.23 L 418.53 -648.24 L 419.25 -648.25 L 419.78 -648.21 L 420.24 -648.23 L 420.84 -648.22 L 421.27 -648.24 L 421.84 -648.22 L 422.37 -648.25 L 423.12 -648.23 L 423.40 -648.26 L 424.18 -648.23 L 424.72 -648.17 L 425.00 -648.26 L 425.54 -648.25 L 426.28 -648.21 L 426.96 -648.25 L 427.49 -648.23 L 428.20 -648.22 L 428.77 -648.25 L 429.23 -648.22 L 429.84 -648.23 L 430.51 -648.22 L 431.04 -648.22 L 431.58 -648.25 L 432.25 -648.23 L 432.64 -648.22 L 433.39 -648.18 L 433.92 -648.23 L 434.45 -648.23 L 434.53 -648.21 L 435.52 -648.23 L 436.05 -648.21 L 436.48 -648.24 L 437.08 -648.25 L 437.69 -648.20 L 438.22 -648.24 L 438.43 -648.23 L 439.22 -648.23 L 439.64 -648.24 L 440.35 -648.19 L 440.92 -648.23 L 441.24 -648.25 L 441.92 -648.25 L 442.13 -648.24 L 443.02 -648.24 L 443.73 -648.25 L 444.26 -648.24 L 445.08 -648.23 L 445.33 -648.23 L 446.07 -648.23 L 446.61 -648.26 L 447.14 -648.24 L 447.67 -648.27 L 448.24 -648.22 L 448.63 -648.25 L 449.02 -648.25 L 449.81 -648.23 L 450.37 -648.36 L 450.91 -648.23 L 451.44 -648.25 L 451.97 -648.22 L 452.51 -648.21 L 452.72 -648.24 L 453.54 -648.23 L 454.14 -648.20 L 454.60 -648.27 L 454.96 -648.25 L 455.88 -648.23 L 456.13 -648.25 L 456.66 -648.24 L 457.23 -648.26 L 457.69 -648.22 L 458.33 -648.24 L 458.90 -648.23 L 459.40 -648.28 L 459.93 -648.23 L 460.64 -648.23 L 461.18 -648.25 L 461.46 -648.25 L 461.99 -648.24 L 462.74 -648.25 L 463.27 -648.25 L 463.59 -648.24 L 464.34 -648.24 L 464.62 -648.28 L 465.16 -648.23 L 465.69 -648.25 L 466.22 -648.23 L 466.76 -648.24 L 467.68 -648.23 L 468.18 -648.27 L 468.36 -648.28 L 469.10 -648.19 L 469.85 -648.27 L 469.99 -648.29 L 470.91 -648.18 L 471.45 -648.21 L 471.73 -648.21 L 471.98 -648.22 L 473.05 -648.26 L 473.58 -648.23 L 473.65 -648.21 L 474.54 -648.25 L 475.68 -648.25 L 476.24 -648.24 L 476.31 -648.23 L 477.17 -648.24 L 477.84 -648.23 L 477.91 -648.25 L 478.91 -648.23 L 479.83 -648.25 L 480.54 -648.21 L 480.72 -648.23 L 481.61 -648.21 L 482.07 -648.25 L 482.60 -648.22 L 483.07 -648.24 L 483.67 -648.24 L 484.42 -648.23 L 484.95 -648.22 L 485.77 -648.26 L 486.30 -648.23 L 486.83 -648.25 L 487.37 -648.25 L 488.47 -648.22 L 488.93 -648.24 L 489.18 -648.26 L 490.00 -648.21 L 490.60 -648.22 L 490.92 -648.22 L 491.13 -648.23 L 492.09 -648.24 L 493.02 -648.23 L 493.69 -648.23 L 494.22 -648.25 L 494.83 -648.24 L 495.50 -648.24 L 495.82 -648.25 L 496.43 -648.28 L 497.10 -648.25 L 497.64 -648.23 L 497.92 -648.21 L 498.67 -648.22 L 498.99 -648.22 L 499.63 -648.31 L 500.05 -648.21 L 500.94 -648.23 L 501.69 -648.23 L 502.40 -648.24 L 502.79 -648.25 L 503.43 -648.25 L 504.14 -648.08 L 504.49 -648.26 L 505.17 -648.24 L 505.56 -648.23 L 506.09 -648.24 L 506.45 -648.23 L 506.98 -648.26 L 507.83 -648.27 L 507.94 -648.25 L 509.04 -648.27 L 509.54 -648.20 L 509.93 -648.22 L 510.61 -648.22 L 511.14 -648.24 L 511.74 -648.23 L 512.06 -648.23 L 512.77 -648.24 L 512.95 -648.23 L 513.31 -648.23 L 514.37 -648.29 L 514.83 -648.23 L 515.37 -648.14 L 515.90 -648.24 L 516.11 -648.25 L 516.65 -648.23 L 517.00 -648.22 L 518.00 -648.22 L 518.25 -648.22 L 519.13 -648.24 L 519.67 -648.24 L 520.13 -648.23 L 520.63 -648.25 L 521.23 -648.22 L 521.69 -648.24 L 522.30 -648.21 L 522.76 -648.23 L 523.36 -648.22 L 523.90 -648.19 L 524.39 -648.31 L 524.93 -648.19 L 525.10 -648.20 L 525.96 -648.19 L 526.53 -648.24 L 527.06 -648.20 L 527.45 -648.24 L 528.02 -648.23 L 528.80 -648.17 L 529.33 -648.23 L 530.01 -648.26 L 530.75 -648.24 L 531.15 -648.24 L 532.10 -648.25 L 532.28 -648.24 L 532.82 -648.25 L 533.56 -648.24 L 533.88 -648.24 L 534.77 -648.25 L 535.30 -648.28 L 535.91 -648.25 L 536.37 -648.29 L 536.90 -648.23 L 537.51 -648.23 L 538.04 -648.27 L 538.47 -648.26 L 539.07 -648.23 L 539.64 -648.23 L 540.17 -648.23 L 540.21 -648.23 L 541.13 -648.25 L 542.34 -648.21 L 542.84 -648.22 L 543.37 -648.25 L 543.90 -648.21 L 544.40 -648.24 L 544.93 -648.25 L 544.97 -648.25 L 546.03 -648.27 L 546.53 -648.22 L 547.07 -648.24 L 547.99 -648.25 L 548.74 -648.24 L 549.77 -648.26 L 549.94 -648.23 L 551.36 -648.22 L 551.76 -648.25 L 552.32 -648.24 L 552.93 -648.25 L 553.11 -648.25 L 553.89 -648.23 L 554.53 -648.24 L 554.95 -648.22 L 555.49 -648.25 L 556.02 -648.21 L 556.59 -648.20 L 557.05 -648.28 L 557.58 -648.21 L 558.19 -648.21 L 558.69 -648.23 L 558.93 -648.25 L 559.75 -648.35 L 560.50 -648.19 L 560.82 -648.19 L 561.56 -648.23 L 561.81 -648.25 L 562.63 -648.23 L 562.98 -648.24 L 563.52 -648.19 L 563.91 -648.25 L 564.51 -648.38 L 565.26 -648.21 L 565.54 -648.12 L 566.15 -648.18 L 566.68 -648.24 L 568.28 -648.26 L 568.74 -648.24 L 569.27 -648.24 L 569.81 -648.24 L 570.70 -648.21 L 571.23 -648.26 L 572.51 -648.24 L 573.54 -648.25 L 574.07 -648.24 L 574.78 -648.24 L 575.10 -648.25 L 576.20 -648.25 L 577.73 -648.24 L 578.48 -648.25 L 579.30 -648.24 L 579.83 -648.23 L 580.36 -648.28 L 580.75 -648.25 L 581.36 -648.27 L 581.96 -648.22 L 582.17 -648.23 L 582.85 -648.23 L 583.52 -648.22 L 584.06 -648.25 L 584.98 -648.28 L 585.51 -648.31 L 586.01 -648.22 L 586.76 -648.23 L 587.08 -648.18 L 587.75 -648.23 L 588.36 -648.22 L 588.75 -648.25 L 589.35 -648.25 L 589.92 -648.24 L 590.24 -648.25 L 590.63 -648.24 L 591.52 -648.24 L 592.51 -648.25 L 593.12 -648.25 L 593.26 -648.25 L 593.79 -648.25 L 594.86 -648.24 L 595.18 -648.28 L 595.75 -648.15 L 596.28 -648.20 L 596.81 -648.17 L 597.13 -648.26 L 597.81 -648.26 L 598.16 -648.26 L 598.80 -648.25 L 599.62 -648.23 L 599.91 -648.23 L 600.44 -648.23 L 600.97 -648.22 L 601.43 -648.27 L 602.04 -648.25 L 602.78 -648.24 L 603.32 -648.26 L 603.60 -648.24 L 604.53 -648.25 L 604.70 -648.24 L 605.41 -648.23 L 606.27 -648.26 L 607.01 -648.27 L 607.69 -648.24 L 607.87 -648.26 L 608.75 -648.24 L 609.36 -648.24 L 609.46 -648.24 L 610.42 -648.24 L 610.53 -648.24 L 611.03 -648.25 L 611.60 -648.24 L 612.56 -648.25 L 613.09 -648.23 L 613.62 -648.25 L 614.19 -648.25 L 614.72 -648.25 L 615.61 -648.24 L 616.29 -648.23 L 616.82 -648.24 L 617.42 -648.25 L 618.10 -648.25 L 618.77 -648.25 L 619.49 -648.24 L 619.70 -648.24 L 620.23 -648.25 L 621.05 -648.24 L 621.12 -648.24 L 621.80 -648.25 L 622.58 -648.24 L 623.11 -648.25 L 623.75 -648.31 L 624.46 -648.24 L 625.28 -648.27 L 626.34 -648.24 L 627.02 -648.24 L 627.37 -648.25 L 627.94 -648.25 L 628.44 -648.22 L 628.97 -648.24 L 629.58 -648.22 L 630.25 -648.28 L 631.14 -648.24 L 631.85 -648.26 L 632.10 -648.26 L 632.92 -648.24 L 633.70 -648.24 L 634.13 -648.24 L 635.01 -648.25 L 635.87 -648.24 L 636.36 -648.25 L 636.90 -648.23 L 637.43 -648.25 L 639.03 -648.24 L 639.60 -648.25 L 640.06 -648.24 L 640.66 -648.24 L 641.13 -648.23 L 641.66 -648.25 L 642.41 -648.24 L 642.94 -648.25 L 643.47 -648.24 L 644.00 -648.24 L 644.54 -648.23 L 646.17 -648.26 L 646.42 -648.26 L 647.17 -648.25 L 648.23 -648.24 L 648.91 -648.24 L 649.05 -648.23 L 650.51 -648.24 L 650.86 -648.21 L 652.25 -648.25 L 652.75 -648.23 L 653.67 -648.24 L 655.87 -648.28 L 656.41 -648.25 L 656.94 -648.26 L 657.47 -648.22 L 658.01 -648.22 L 658.54 -648.23 L 658.97 -648.24 L 659.85 -648.28 L 660.71 -648.22 L 660.74 -648.21 L 661.77 -648.25 L 662.80 -648.24 L 663.37 -648.23 L 663.83 -648.24 L 664.90 -648.23 L 665.50 -648.22 L 666.36 -648.24 L 666.89 -648.26 L 667.60 -648.22 L 668.10 -648.27 L 668.60 -648.23 L 669.13 -648.24" fill="none" stroke="rgb(255,0,0)" stroke-width="2"/>
</g>
<path d="M 0.00 -490.50 L 669.13 -490.50" fill="none" stroke="rgb(51,51,51)" stroke-width="1.4173225"/>
<path d="M 120.97 -490.50 L 120.97 -498.50" fill="none" stroke="rgb(51,51,51)" stroke-width="2.5"/>
<g transform="translate(120.97140416309254,-484.5) rotate(0.000)">
<text x="0.00" y="15.40" font-family="Arial,Helvetica,sans-serif" font-size="15.400000000000002" text-anchor="middle" stroke="none" fill="rgb(0,0,0)">2023 </text>
</g>
<path d="M 316.78 -490.50 L 316.78 -498.50" fill="none" stroke="rgb(51,51,51)" stroke-width="2.5"/>
<g transform="translate(316.7787868046585,-484.5) rotate(0.000)">
<text x="0.00" y="15.40" font-family="Arial,Helvetica,sans-serif" font-size="15.400000000000002" text-anchor="middle" stroke="none" fill="rgb(0,0,0)">2024 </text>
</g>
<path d="M 513.12 -490.50 L 513.12 -498.50" fill="none" stroke="rgb(51,51,51)" stroke-width="2.5"/>
<g transform="translate(513.1226280288041,-484.5) rotate(0.000)">
<text x="0.00" y="15.40" font-family="Arial,Helvetica,sans-serif" font-size="15.400000000000002" text-anchor="middle" stroke="none" fill="rgb(0,0,0)">2025 </text>
</g>
<path d="M 22.26 -490.50 L 22.26 -494.50" fill="none" stroke="rgb(51,51,51)" stroke-width="2.5"/>
<path d="M 55.52 -490.50 L 55.52 -494.50" fill="none" stroke="rgb(51,51,51)" stroke-width="2.5"/>
<path d="M 88.25 -490.50 L 88.25 -494.50" fill="none" stroke="rgb(51,51,51)" stroke-width="2.5"/>
<path d="M 120.97 -490.50 L 120.97 -494.50" fill="none" stroke="rgb(51,51,51)" stroke-width="2.5"/>
<path d="M 152.62 -490.50 L 152.62 -494.50" fill="none" stroke="rgb(51,51,51)" stroke-width="2.5"/>
<path d="M 185.35 -490.50 L 185.35 -494.50" fill="none" stroke="rgb(51,51,51)" stroke-width="2.5"/>
<path d="M 218.07 -490.50 L 218.07 -494.50" fill="none" stroke="rgb(51,51,51)" stroke-width="2.5"/>
<path d="M 251.33 -490.50 L 251.33 -494.50" fill="none" stroke="rgb(51,51,51)" stroke-width="2.5"/>
<path d="M 284.05 -490.50 L 284.05 -494.50" fill="none" stroke="rgb(51,51,51)" stroke-width="2.5"/>
<path d="M 316.78 -490.50 L 316.78 -494.50" fill="none" stroke="rgb(51,51,51)" stroke-width="2.5"/>
<path d="M 348.97 -490.50 L 348.97 -494.50" fill="none" stroke="rgb(51,51,51)" stroke-width="2.5"/>
<path d="M 381.69 -490.50 L 381.69 -494.50" fill="none" stroke="rgb(51,51,51)" stroke-width="2.5"/>
<path d="M 414.41 -490.50 L 414.41 -494.50" fill="none" stroke="rgb(51,51,51)" stroke-width="2.5"/>
<path d="M 447.67 -490.50 L 447.67 -494.50" fill="none" stroke="rgb(51,51,51)" stroke-width="2.5"/>
<path d="M 480.40 -490.50 L 480.40 -494.50" fill="none" stroke="rgb(51,51,51)" stroke-width="2.5"/>
<path d="M 513.12 -490.50 L 513.12 -494.50" fill="none" stroke="rgb(51,51,51)" stroke-width="2.5"/>
<path d="M 544.77 -490.50 L 544.77 -494.50" fill="none" stroke="rgb(51,51,51)" stroke-width="2.5"/>
<path d="M 577.50 -490.50 L 577.50 -494.50" fill="none" stroke="rgb(51,51,51)" stroke-width="2.5"/>
<path d="M 610.22 -490.50 L 610.22 -494.50" fill="none" stroke="rgb(51,51,51)" stroke-width="2.5"/>
<path d="M 643.48 -490.50 L 643.48 -494.50" fill="none" stroke="rgb(51,51,51)" stroke-width="2.5"/>
<path d="M 0.00 -657.78 L 669.13 -657.78" fill="none" stroke="rgb(51,51,51)" stroke-width="1.4173225"/>
<path d="M 120.97 -657.78 L 120.97 -649.78" fill="none" stroke="rgb(51,51,51)" stroke-width="2.5"/>
<path d="M 316.78 -657.78 L 316.78 -649.78" fill="none" stroke="rgb(51,51,51)" stroke-width="2.5"/>
<path d="M 513.12 -657.78 L 513.12 -649.78" fill="none" stroke="rgb(51,51,51)" stroke-width="2.5"/>
<path d="M 22.26 -657.78 L 22.26 -653.78" fill="none" stroke="rgb(51,51,51)" stroke-width="2.5"/>
<path d="M 55.52 -657.78 L 55.52 -653.78" fill="none" stroke="rgb(51,51,51)" stroke-width="2.5"/>
<path d="M 88.25 -657.78 L 88.25 -653.78" fill="none" stroke="rgb(51,51,51)" stroke-width="2.5"/>
<path d="M 120.97 -657.78 L 120.97 -653.78" fill="none" stroke="rgb(51,51,51)" stroke-width="2.5"/>
<path d="M 152.62 -657.78 L 152.62 -653.78" fill="none" stroke="rgb(51,51,51)" stroke-width="2.5"/>
<path d="M 185.35 -657.78 L 185.35 -653.78" fill="none" stroke="rgb(51,51,51)" stroke-width="2.5"/>
<path d="M 218.07 -657.78 L 218.07 -653.78" fill="none" stroke="rgb(51,51,51)" stroke-width="2.5"/>
<path d="M 251.33 -657.78 L 251.33 -653.78" fill="none" stroke="rgb(51,51,51)" stroke-width="2.5"/>
<path d="M 284.05 -657.78 L 284.05 -653.78" fill="none" stroke="rgb(51,51,51)" stroke-width="2.5"/>
<path d="M 316.78 -657.78 L 316.78 -653.78" fill="none" stroke="rgb(51,51,51)" stroke-width="2.5"/>
<path d="M 348.97 -657.78 L 348.97 -653.78" fill="none" stroke="rgb(51,51,51)" stroke-width="2.5"/>
<path d="M 381.69 -657.78 L 381.69 -653.78" fill="none" stroke="rgb(51,51,51)" stroke-width="2.5"/>
<path d="M 414.41 -657.78 L 414.41 -653.78" fill="none" stroke="rgb(51,51,51)" stroke-width="2.5"/>
<path d="M 447.67 -657.78 L 447.67 -653.78" fill="none" stroke="rgb(51,51,51)" stroke-width="2.5"/>
<path d="M 480.40 -657.78 L 480.40 -653.78" fill="none" stroke="rgb(51,51,51)" stroke-width="2.5"/>
<path d="M 513.12 -657.78 L 513.12 -653.78" fill="none" stroke="rgb(51,51,51)" stroke-width="2.5"/>
<path d="M 544.77 -657.78 L 544.77 -653.78" fill="none" stroke="rgb(51,51,51)" stroke-width="2.5"/>
<path d="M 577.50 -657.78 L 577.50 -653.78" fill="none" stroke="rgb(51,51,51)" stroke-width="2.5"/>
<path d="M 610.22 -657.78 L 610.22 -653.78" fill="none" stroke="rgb(51,51,51)" stroke-width="2.5"/>
<path d="M 643.48 -657.78 L 643.48 -653.78" fill="none" stroke="rgb(51,51,51)" stroke-width="2.5"/>
<path d="M 0.00 -490.50 L 0.00 -657.78" fill="none" stroke="rgb(51,51,51)" stroke-width="1.4173225"/>
<path d="M 0.00 -541.41 L 8.00 -541.41" fill="none" stroke="rgb(51,51,51)" stroke-width="2.5"/>
<g transform="translate(-6,-541.4119225543478) rotate(0.000)">
<text x="0.00" y="7.70" font-family="Arial,Helvetica,sans-serif" font-size="15.400000000000002" text-anchor="end" stroke="none" fill="rgb(0,0,0)">400</text>
</g>
<path d="M 0.00 -614.14 L 8.00 -614.14" fill="none" stroke="rgb(51,51,51)" stroke-width="2.5"/>
<g transform="translate(-6,-614.1432404891304) rotate(0.000)">
<text x="0.00" y="7.70" font-family="Arial,Helvetica,sans-serif" font-size="15.400000000000002" text-anchor="end" stroke="none" fill="rgb(0,0,0)">500</text>
</g>
<path d="M 0.00 -505.05 L 4.00 -505.05" fill="none" stroke="rgb(51,51,51)" stroke-width="2.5"/>
<path d="M 0.00 -541.41 L 4.00 -541.41" fill="none" stroke="rgb(51,51,51)" stroke-width="2.5"/>
<path d="M 0.00 -577.78 L 4.00 -577.78" fill="none" stroke="rgb(51,51,51)" stroke-width="2.5"/>
<path d="M 0.00 -614.14 L 4.00 -614.14" fill="none" stroke="rgb(51,51,51)" stroke-width="2.5"/>
<path d="M 0.00 -650.51 L 4.00 -650.51" fill="none" stroke="rgb(51,51,51)" stroke-width="2.5"/>
<g transform="translate(-59.02685546875,-574.141015625) rotate(-90.000)">
<text x="0.00" y="16.80" font-family="Arial,Helvetica,sans-serif" font-size="16.8" text-anchor="middle" stroke="none" fill="rgb(0,0,0)">Mean altitude (km)</text>
</g>
<path d="M 669.13 -490.50 L 669.13 -657.78" fill="none" stroke="rgb(51,51,51)" stroke-width="1.4173225"/>
<path d="M 669.13 -541.41 L 661.13 -541.41" fill="none" stroke="rgb(51,51,51)" stroke-width="2.5"/>
<path d="M 669.13 -614.14 L 661.13 -614.14" fill="none" stroke="rgb(51,51,51)" stroke-width="2.5"/>
<path d="M 669.13 -505.05 L 665.13 -505.05" fill="none" stroke="rgb(51,51,51)" stroke-width="2.5"/>
<path d="M 669.13 -541.41 L 665.13 -541.41" fill="none" stroke="rgb(51,51,51)" stroke-width="2.5"/>
<path d="M 669.13 -577.78 L 665.13 -577.78" fill="none" stroke="rgb(51,51,51)" stroke-width="2.5"/>
<path d="M 669.13 -614.14 L 665.13 -614.14" fill="none" stroke="rgb(51,51,51)" stroke-width="2.5"/>
<path d="M 669.13 -650.51 L 665.13 -650.51" fill="none" stroke="rgb(51,51,51)" stroke-width="2.5"/>
</g>
</g>
</svg>